<mxfile host="app.diagrams.net" modified="2023-08-20T15:01:49.481Z" agent="Mozilla/5.0 (Macintosh; Intel Mac OS X 10_15_7) AppleWebKit/537.36 (KHTML, like Gecko) Chrome/115.0.0.0 Safari/537.36" version="21.6.8" etag="viaaARatsPzhce7i4ZFn" type="device">
  <diagram id="bn8BU__7KS1ShIbHpxrl" name="Seite-1">
    <mxGraphModel dx="954" dy="585" grid="1" gridSize="10" guides="1" tooltips="1" connect="1" arrows="1" fold="1" page="1" pageScale="1" pageWidth="827" pageHeight="1169" math="0" shadow="0">
      <root>
        <mxCell id="0" />
        <mxCell id="1" parent="0" />
        <mxCell id="s9ZdvNC-4ONlF8Tl6-EY-1" value="Room" style="rounded=0;whiteSpace=wrap;html=1;fontFamily=Times New Roman;" parent="1" vertex="1">
          <mxGeometry x="570" y="90" width="450" height="60" as="geometry" />
        </mxCell>
        <mxCell id="s9ZdvNC-4ONlF8Tl6-EY-3" value="" style="rounded=0;whiteSpace=wrap;html=1;align=center;verticalAlign=top;fontFamily=Times New Roman;" parent="1" vertex="1">
          <mxGeometry x="570" y="230" width="450" height="140" as="geometry" />
        </mxCell>
        <mxCell id="s9ZdvNC-4ONlF8Tl6-EY-4" value="" style="rounded=0;whiteSpace=wrap;html=1;fontFamily=Times New Roman;" parent="1" vertex="1">
          <mxGeometry x="60" y="120" width="300" height="160" as="geometry" />
        </mxCell>
        <mxCell id="s9ZdvNC-4ONlF8Tl6-EY-5" value="Local Processing" style="text;html=1;strokeColor=none;fillColor=none;align=center;verticalAlign=middle;whiteSpace=wrap;rounded=0;fontFamily=Times New Roman;" parent="1" vertex="1">
          <mxGeometry x="60" y="120" width="100" height="30" as="geometry" />
        </mxCell>
        <mxCell id="s9ZdvNC-4ONlF8Tl6-EY-6" value="Database&lt;br&gt;(Rooms, Users)" style="shape=cylinder3;whiteSpace=wrap;html=1;boundedLbl=1;backgroundOutline=1;size=5.600006103515625;fontFamily=Times New Roman;" parent="1" vertex="1">
          <mxGeometry x="240" y="200" width="60" height="70" as="geometry" />
        </mxCell>
        <mxCell id="s9ZdvNC-4ONlF8Tl6-EY-7" value="Business Logic" style="rounded=0;whiteSpace=wrap;html=1;fontFamily=Times New Roman;" parent="1" vertex="1">
          <mxGeometry x="220" y="130" width="120" height="60" as="geometry" />
        </mxCell>
        <mxCell id="s9ZdvNC-4ONlF8Tl6-EY-8" value="Webserver" style="rounded=0;whiteSpace=wrap;html=1;fontFamily=Times New Roman;" parent="1" vertex="1">
          <mxGeometry x="80" y="190" width="120" height="60" as="geometry" />
        </mxCell>
        <mxCell id="s9ZdvNC-4ONlF8Tl6-EY-10" value="" style="endArrow=classic;startArrow=classic;html=1;rounded=0;exitX=1;exitY=0.75;exitDx=0;exitDy=0;fontFamily=Times New Roman;" parent="1" source="s9ZdvNC-4ONlF8Tl6-EY-8" edge="1">
          <mxGeometry width="50" height="50" relative="1" as="geometry">
            <mxPoint x="390" y="340" as="sourcePoint" />
            <mxPoint x="240" y="240" as="targetPoint" />
          </mxGeometry>
        </mxCell>
        <mxCell id="s9ZdvNC-4ONlF8Tl6-EY-11" value="" style="endArrow=classic;startArrow=classic;html=1;rounded=0;entryX=0;entryY=0.5;entryDx=0;entryDy=0;exitX=0.877;exitY=0.007;exitDx=0;exitDy=0;exitPerimeter=0;fontFamily=Times New Roman;" parent="1" source="s9ZdvNC-4ONlF8Tl6-EY-8" target="s9ZdvNC-4ONlF8Tl6-EY-7" edge="1">
          <mxGeometry width="50" height="50" relative="1" as="geometry">
            <mxPoint x="190" y="180" as="sourcePoint" />
            <mxPoint x="440" y="290" as="targetPoint" />
          </mxGeometry>
        </mxCell>
        <mxCell id="s9ZdvNC-4ONlF8Tl6-EY-12" value="" style="endArrow=classic;startArrow=classic;html=1;rounded=0;entryX=0.75;entryY=1;entryDx=0;entryDy=0;exitX=0.855;exitY=0;exitDx=0;exitDy=4.35;exitPerimeter=0;fontFamily=Times New Roman;" parent="1" source="s9ZdvNC-4ONlF8Tl6-EY-6" target="s9ZdvNC-4ONlF8Tl6-EY-7" edge="1">
          <mxGeometry width="50" height="50" relative="1" as="geometry">
            <mxPoint x="390" y="340" as="sourcePoint" />
            <mxPoint x="440" y="290" as="targetPoint" />
          </mxGeometry>
        </mxCell>
        <mxCell id="s9ZdvNC-4ONlF8Tl6-EY-13" value="" style="fontColor=#0066CC;verticalAlign=top;verticalLabelPosition=bottom;labelPosition=center;align=center;html=1;outlineConnect=0;fillColor=#CCCCCC;strokeColor=#6881B3;gradientColor=none;gradientDirection=north;strokeWidth=2;shape=mxgraph.networks.firewall;fontFamily=Times New Roman;" parent="1" vertex="1">
          <mxGeometry x="110" y="310" width="60" height="60" as="geometry" />
        </mxCell>
        <mxCell id="s9ZdvNC-4ONlF8Tl6-EY-14" value="" style="endArrow=classic;startArrow=classic;html=1;rounded=0;entryX=0.5;entryY=1;entryDx=0;entryDy=0;exitX=0.5;exitY=0;exitDx=0;exitDy=0;exitPerimeter=0;fontFamily=Times New Roman;" parent="1" source="s9ZdvNC-4ONlF8Tl6-EY-13" target="s9ZdvNC-4ONlF8Tl6-EY-8" edge="1">
          <mxGeometry width="50" height="50" relative="1" as="geometry">
            <mxPoint x="390" y="340" as="sourcePoint" />
            <mxPoint x="440" y="290" as="targetPoint" />
          </mxGeometry>
        </mxCell>
        <mxCell id="s9ZdvNC-4ONlF8Tl6-EY-15" value="Firewall&lt;br&gt;DOS Protection" style="text;html=1;strokeColor=none;fillColor=none;align=left;verticalAlign=middle;whiteSpace=wrap;rounded=0;fontFamily=Times New Roman;" parent="1" vertex="1">
          <mxGeometry x="180" y="320" width="110" height="30" as="geometry" />
        </mxCell>
        <mxCell id="s9ZdvNC-4ONlF8Tl6-EY-17" value="" style="shape=waypoint;sketch=0;fillStyle=solid;size=6;pointerEvents=1;points=[];fillColor=none;resizable=0;rotatable=0;perimeter=centerPerimeter;snapToPoint=1;fontFamily=Times New Roman;" parent="1" vertex="1">
          <mxGeometry x="781" y="146" width="40" height="40" as="geometry" />
        </mxCell>
        <mxCell id="s9ZdvNC-4ONlF8Tl6-EY-18" value="" style="shape=waypoint;sketch=0;fillStyle=solid;size=6;pointerEvents=1;points=[];fillColor=none;resizable=0;rotatable=0;perimeter=centerPerimeter;snapToPoint=1;fontFamily=Times New Roman;" parent="1" vertex="1">
          <mxGeometry x="781" y="170" width="40" height="40" as="geometry" />
        </mxCell>
        <mxCell id="s9ZdvNC-4ONlF8Tl6-EY-19" value="" style="shape=waypoint;sketch=0;fillStyle=solid;size=6;pointerEvents=1;points=[];fillColor=none;resizable=0;rotatable=0;perimeter=centerPerimeter;snapToPoint=1;fontFamily=Times New Roman;" parent="1" vertex="1">
          <mxGeometry x="781" y="194" width="40" height="40" as="geometry" />
        </mxCell>
        <mxCell id="s9ZdvNC-4ONlF8Tl6-EY-20" value="" style="endArrow=classic;html=1;rounded=0;entryX=1;entryY=0.5;entryDx=0;entryDy=0;fontFamily=Times New Roman;" parent="1" target="s9ZdvNC-4ONlF8Tl6-EY-4" edge="1">
          <mxGeometry width="50" height="50" relative="1" as="geometry">
            <mxPoint x="480" y="200" as="sourcePoint" />
            <mxPoint x="580" y="260" as="targetPoint" />
          </mxGeometry>
        </mxCell>
        <mxCell id="s9ZdvNC-4ONlF8Tl6-EY-21" value="" style="endArrow=classic;html=1;rounded=0;entryX=0;entryY=0.5;entryDx=0;entryDy=0;fontFamily=Times New Roman;" parent="1" target="s9ZdvNC-4ONlF8Tl6-EY-1" edge="1">
          <mxGeometry width="50" height="50" relative="1" as="geometry">
            <mxPoint x="480" y="200" as="sourcePoint" />
            <mxPoint x="580" y="260" as="targetPoint" />
            <Array as="points">
              <mxPoint x="480" y="120" />
            </Array>
          </mxGeometry>
        </mxCell>
        <mxCell id="s9ZdvNC-4ONlF8Tl6-EY-22" value="" style="endArrow=classic;html=1;rounded=0;entryX=0;entryY=0.5;entryDx=0;entryDy=0;fontFamily=Times New Roman;" parent="1" target="s9ZdvNC-4ONlF8Tl6-EY-3" edge="1">
          <mxGeometry width="50" height="50" relative="1" as="geometry">
            <mxPoint x="480" y="200" as="sourcePoint" />
            <mxPoint x="580" y="260" as="targetPoint" />
            <Array as="points">
              <mxPoint x="480" y="300" />
            </Array>
          </mxGeometry>
        </mxCell>
        <mxCell id="s9ZdvNC-4ONlF8Tl6-EY-23" value="" style="shape=image;verticalLabelPosition=bottom;labelBackgroundColor=default;verticalAlign=top;aspect=fixed;imageAspect=0;image=data:image/png,iVBORw0KGgoAAAANSUhEUgAAAIAAAACACAYAAADDPmHLAAABgmlDQ1BzUkdCIElFQzYxOTY2LTIuMQAAKJF1kc8rRFEUxz8GkV+jWEgWL2E1Iz9qYmMx8quwGKMMNjNv3ptR82Ze740kW2WrKLHxa8FfwFZZK0WkZGFlTWyYnvNm1Ejm3M49n/u995zuPRc84ZRq2BU9YKSzVmgsqMxF5pWqZ2pppYF6vFHVNqdmRsOUtI87ytx443drlT73r9XGNVuFsmrhIdW0ssLjwpMrWdPlbeFmNRmNC58K+yy5oPCtq8cK/OJyosBfLlvh0DB4GoWVxC+O/WI1aRnC8nI6jNSy+nMf9yV1Wnp2RmK7eBs2IcYIojDBCMME6GVQ5gB++uiWFSXye/L502QkV5XZZBWLJRIkyeITdVmqaxJ10TUZKVbd/v/tq6339xWq1wWh8slx3jqhagtym47zeeg4uSMof4SLdDE/cwAD76JvFrWOffCuw9llUYvtwPkGtDyYUSual8rFPboOrydQH4Gma6hZKPTsZ5/jewivyVddwe4edMl57+I3OVRn0USE0RIAAAAJcEhZcwAACxMAAAsTAQCanBgAABGDSURBVHic7Z19TFPXG8e/ZbBhcY5iS0TwbVcBUVKhKtFs4w9gaNUpIHTGEo2LkYgKjikuGxCEZIlmE18IgSxxm26s4gAdiE4xIW5zohuw+rKiLW9TCJQCIkqAcX5/aO+PWsCWtkDb80luIp57zz23z/eel+eccx8ORiEtLc2hq6trc1NT0w6lUumvVqu5arXasbe3d7TLKBOEs7Mz+Hz+AJ/Pf8owjHzWrFm5WVlZp8aU2f79+8OEQmEXAEIP6z2EQmHXvn37QvQt/BzOy/+RlpbmoFQqzxYWFkY8ffoUAoEAMTExWLNmDRYsWAAPDw+4uLiMlB9lAunp6UFzczPu37+P0tJSnDlzBm1tbeByuYiMjCxkGCY6PT19cMQMDhw4IAoMDOzAC/XExsYSjUZDKNaJRqMhUqmUrQ0CAwM7kpOTA4Y1flpamoPW+O7u7qS4uHiiy08xE0VFRcTd3Z0AICKRqCMtLc1BTwBSqfQnrfGbm5snuswUM9Pc3MyKQCqVFugYf//+/WFcLpcAoG++DVNUVEQAEC6XS9iOYVpamoO2tx8bGzvRZaRYGG2f4IXNgcTExFgARCAQ0A6fBfjhhx/IwoULyYwZM4izszNxdnYmM2bMIAsXLiT5+fnjXh6NRkMEAgEBQPbu3St1aGpq2gEAMTEx4PF4ho44KAZSXFyMe/fuoaWlBb29vejt7UVLSwvu3buHoqKicS8Pj8dDdHQ0AKCxsXGHg1Kp9AeANWvWjHth7IFbt24BADIzM1FSUoKSkhJ8+umnAIA///xzQsq0du1aAIBSqfR3UKvVXABYsGDBhBTG2qmtrR0xrb29HXV1dXB0dMSyZcvA5XLB5XIRHBwMR0dHqFQqaDSaMeVtCvPnz9eWz8VBrVY7AoCHh4dFbmarEEIQFxcHX19fREdHQ61W66T39/fj2LFjIITAx8cHTk5ObNrrr78Ob29vEEJw9OhR9Pf361zb1taG6Oho+Pr6Ii4uDoQQs5bd09MTANDa2uoIvPASUQznyZMnJDQ0VMfn7ubmRnJzc4lKpSJ79uwhfD6fTUtISCBXr17VORISEth0Pp9PEhISSF1dHcnNzSVubm46eYeGhpInT56Y9Rm0eXNe/MPsKrNVCCEICwtDeXk5pk6dip07d6KsrAxyuRwAwOFw2N9yzpw5kEgkCA8PB4fD0cvn0qVLkMlkaGho0LvW398fq1evRnZ2Nnp6ehAWFoZLly7p5TNWtPlQARhJXFwccnNzMXXqVBw7dgxz584FIQQXLlzAt99+i8ePH2PFihVYv349hELhKw1GCEFNTQ3OnTuH69evY9q0adiyZQvEYjE4HA7q6+uxe/du9PT0IC4uDjk5OWZ5DiqAMVBbWwtfX18QQrB//36sWrVKJ137G471LR3p+osXL+LQoUPgcDhQKBRm6bBr76E/KUAZEW9vb0RFRQEAysrK9F4aDodjUhU93PWEEJSVlQEAoqOjzT5aowIwkpycHLi5uUEul+PChQsWv9+FCxcgl8vh5uaG7Oxss+dPm4AxkJeXhx07doDP50Mmk4341mvb9xs3bkChUOD+/fsAnvtcfHx8EBQUNGo/gRACiUQCtVqNvLw8bN++3WzPQPsAJlBfX4+3334bTk5OKCsrG9aAnZ2dOHr0KCoqKkbNKzg4GAkJCXB1ddVLGxwchFgsRn9/P1QqFebOnWuuR6B9AFPIysoCIQQrVqwY1vh37tzBtm3bUFFRAS6Xi507d+L06dNoaGhAQ0MDTp8+jZ07d2LKlCmoqKjAtm3bcOfOHb18HBwcsGLFCtZhZAloDWAk/f39mDlzJtRqNb766issWbJEJ72zsxPbtm1DZ2cnli9fjlOnTsHb23vYvBQKBWJjY3Hz5k24urri5MmTeOutt3TOqa6uxscffwyBQICHDx/qeBRNgdYAY6C9vR2ZmZlQq9WYM2cOhEKhTrr2TdUa/48//hjR+ADg4+ODGzduYNmyZejs7ERWVpbeOUKhELNnz0ZbWxsyMzPR3t5u1meyeQGYWrPl5+dDIpGAYRgIBAIcPHgQACCRSPSq/5qaGrbaP3XqlEFDQg6Hg1OnToHL5aKiogLV1dV66RKJBABw8OBBCAQCMAwDiUSC/Px8k54NABxNzmGSY6rrNCMjA/fu3QMAODo6wsfHB6GhoQgPD9c798aNGwCArVu3jvrmv4yPjw+2bNmCnJwcVFZW6jUrq1atQl9fH65cuQKFQgGVSgWVSoXbt29j06ZNJjydjQugqakJSUlJuHbtGlpaWsaUB5/PB/B8Pn/ZsmWjtsHa6duVK1cafZ+VK1ciJydn2ClgDoeD9evXY/369ejv70dlZSVSUlLQ0dFh9H1exmYF0NTUBKFQaPKP1N3dDQBYsmTJKztgDx48APD/+XZjeOeddwCA9RWMhJOTEwICni/tN4cAbK4PoG3zk5KS0NHRAZFIhOvXr+Px48fo7u42+hhLE3LkyBGdskxmbE4AWoNdu3YNAHD8+HEsXrx4zH0BrYOmqqoKfX19o56rffOVSqVOWQzh119/BfDqlVl9fX2oqqoCALOs4bTZJkDb5i9evNikfHg8HlpaWpCSkgJHR0d4e3sjLCwMH3zwgZ6Bvb29UVVVpbfCxxB+//13No+XIYTg/PnzuHz5MmprazEwMMCWzVRsVgBaTB0FJCcno6SkBH/99Rfq6upw9+5d3L17F2+88YbedHBQUBBkMhlqa2tRW1tr8EhAoVDgm2++AQAsX75cL/3ixYusJ5DD4YBhGIhEIkRERJj0bIANNgHmJioqCidPnkRNTQ0aGxvx2WefAQBkMpleGy8UChEcHIxnz55BKpUa1AcghCA2NhbPnj1DcHCw3hCQEAKZTAYASE1NhVqtxoMHDyCTyfDhhx+a/HxUAEbg6uqKpKQk8Pl8NDQ0oKamRiedw+GwEzs3b95EUFAQFArFiPkpFAoEBQWxruDExES9c7TCEwgE+Pzzz+Hm5mbWZ6ICMBInJyf2zTt37pxeuqurKzIyMlgRBAYGspNB9fX1qK+vZyeDAgICWONnZGTozQMMvcfmzZvNNg8wFJudDNK2/dpx/FgZHBzErVu3UFhYiJ9//hm+vr7IysrCokWLzDYdnJiYOKzxx2M62OY7gWNhqNGLi4vx8OFDNm3BggUoLy8HIQTTpk0bMQ9XV1ekpqaipqYGlZWVqK2t1VkQ4u3tjeXLl+u1+UPhcDiYNm0a1Go1Ll++bNYFIew9QGsAAKMb3cvLCxs2bEBERATmzZuHpUuXQqPRICkpyeJb6kpLS/Hll1/Czc0NCoWCdU2bCq0BYLjRly5dCgeH592lrVu3QqPRwN/fH2Kx2OJlFIvF+OWXXyCXyxEfH8+OCMyFXQsgKioKV65cYf8eyehalEolCgsLAQCrV68edgUvIUTvOkMZHBzUWxnM4XCwevVqyOVyFBQUIDMz06wrg+koYAhaA44EwzD46KOPAADZ2dmor69nryspKYFEIoFYLEZ6ejqqq6sN9gNUV1cjPT0dYrEYEokEpaWl7LV1dXXsauAdO3aYfVn4pOkDrFmzxuRl1mKxGKWlpQAM6wNom4CioiIUFxfj33//ZdM8PT2xYcMGREZG6tQGhBBEREQYvDUsJiYGq1atGra2uHjxImQyGRobG/WuHa+tYcAk2RyqLYcph1gs1suvu7vboKOrq4uUl5eTXbt2ES8vL518PT09SXx8PCkvLyddXV2kpaWFhISE6G0OPXHiBOHxeEQoFBq1OVQgEJDExERSV1dH8vLy9DaHhoWFWWxz6KQTgLnzM1QAhoohJCSEdHd3k8ePH5Pt27cTDodDNm7cSBoaGkh3dzd7Xl9fH0lNTSUAyKJFi/QE4OfnRwCQ1NRU0tfXp1P21tZWEhMTQzgcDomLiyODg4Nm+11e/n0mTROgrZLMVQ5zO4KKiopYR9DZs2fZdKVSCYZh2L/ffPNNAM+fo729HQKBAK+99hpKS0tZT15fXx/Wrl2L//77D2q1ekT3rjETSsYy6TaGTFYBGMtQAQDPO44qlQoZGRnsSp6qqiqkpKSAYRh2FdF4Q/0A48TSpUuhUqmQkpKilyYSiSagRLrYtQA2btyIS5cuGXVNeHi4ThPwKjZs2IDbt2+jo6ODXcPH4/HA4/HMMp9vKnYtgPFg06ZNJi/dtiS0D2BmXu4DTFbo1jAKACoAu4cKwM6xeQGMZ1s8ODhyNJbJis0KYMaMGQCA27dvj9s9tfeypq+u2pwAtG/8u+++CwDYvXs35HK5Rd/OwcFByOVy7NmzBwDw3nvv6ZRlMmOzw0BzbQ41Fh6Ph7///hteXl7jel9jsflh4KxZs1BTUwOJRDIuVbKHhwckEolVGH8oNlsDUEbH5msALeMpKGsUr80LwFxLqCbbvcyFzQuAMjpUAHYOFYCdQwVgYfLz8+Hn5wcPDw9MmTIFU6ZMgYeHB/z8/PDjjz9OdPGoACzNZIsb+DJ0RZCFGRo3ULsT+LfffsMXX3wxYXEDh0JrABOxxriBQ6ECGCPEiuMG6j0LzLAjRywWm2V7lzVA4wYOgzk2d5qjHJaG0LiBlsFaJoNo3EALYQ0CoHED7RwaN5BC4wZaCmtoArTQuIEWwJoEQOMG2jk0bqAlCmIlNQCNG2jH0LiBVoipNQqNG2jl0LiBo2PTAqBxA1+NzQqAxg00DJvrA2jbfBo30DBsTgA0bqBx2GwTQOMGGobNCkALjRs4OjbXBJgbGjeQwkLjBlJo3EBLYU1fCm1qaqJxA+0ZGjfQAkxEDRAVFYV//vkH69at04sNNBJqtRoikchm4gbadR9gYGAAjY2NyM7ORkhICPz8/HDgwAFUVlaO+Fm5Tz75ZNzjBvr7+0Oj0SA+Pt7s+dt1DWBs1DClUomAgIBRl4UTM8cNBCy7LNyuBTAUQ8WQn5+Pr7/+Gi4uLjh+/Di7MaS0tBTfffed2TeG1NXVYc+ePfazMcQUjI0bOBKjiSE0NBSEEJuJGzhp+gDj0Z4ai7ZKf5nvv/8eISEhePLkCQ4dOsSu2z9x4gRcXV0hFApZZ9Hhw4dx/vx5vTzOnz+Pw4cPs06exMREqFQq5OXlsfsODh06xBq/qKjIYl8hs5pducagfS5jYwXGx8cTT09Pnd25Xl5eZNeuXWzgSBo30AowphNoTPTwl7H2uIF27QiKiIjA1atX2b8NNfpQhhr/ZaZPn4558+ZBpVKhsrJSJ27gwMAAGIYZ1bdvKeMPxa4F4OjoiDlz5mDdunVGGd0YaNzAScxPP/1k8XtM9riBdt0HsAQ0bBzFqqACsHOoAOwcKgA7x+YFMJ6dMRo3cBJB4wYahs0JQPvG07iBhmGzfgAaN3B0bN4PQOMGGobN1gCU0WFrAGdnZwBAT0/PRJbHYoynsK3lJdLa2tnZGQ58Pn8AAJqbmye0UJaCxg3U59GjRwAAgUAw4MDn858Cr/4yBcV20H7JZPr06T0ODMPIAbCLKSm2T0lJCQCAYRi5w6xZs3IB4MyZM+M+ZKKMPxqNBgUFBQCA2bNn5wIAhEJhFwASGxtr9sWHlMmFVColAMgLmz/3A4SHh2/UftxwuC3PFNuguLgYp0+fBpfLxfvvvx+pkyiVSn8CQNzd3Ulzc/NEC5ViZpqbm4m7uzsBQKRSaYHW7qwnkGGY6MDAwM7W1lYIhUIUFxePmzIplqW4uBhCoRCtra0QiUSdDMNIhj0xOTk5QCQSdeDFpgGpVEo0Gs1Ei5cyRjQaDdm8eTO7CUQkEnUkJycHDLW5nuciLS3NQalUFhQWFkY+ffoUAoEA0dHRWLt2LebPn4+ZM2fCxcXFAjqlmEpPTw8ePXqEBw8eoKSkBAUFBWhrawOXy0VkZORZhmEk6enphk2L7tu3L0Q7OqCH9R5CobBr3759IfoWfs4rfZd79+6VNjY27lAqlf7t7e0ubW1tjr29va+6jDIBODs7QyAQDEyfPr2HYRj57Nmzc48cOXJ6tGv+B2T/HIuIW5LbAAAAAElFTkSuQmCC;fontFamily=Times New Roman;" parent="1" vertex="1">
          <mxGeometry x="610" y="280" width="40" height="40" as="geometry" />
        </mxCell>
        <mxCell id="s9ZdvNC-4ONlF8Tl6-EY-26" value="" style="shape=image;verticalLabelPosition=bottom;labelBackgroundColor=default;verticalAlign=top;aspect=fixed;imageAspect=0;image=data:image/png,iVBORw0KGgoAAAANSUhEUgAAAIAAAACACAYAAADDPmHLAAABgmlDQ1BzUkdCIElFQzYxOTY2LTIuMQAAKJF1kc8rRFEUxz8GkV+jWEgWL2E1Iz9qYmMx8quwGKMMNjNv3ptR82Ze740kW2WrKLHxa8FfwFZZK0WkZGFlTWyYnvNm1Ejm3M49n/u995zuPRc84ZRq2BU9YKSzVmgsqMxF5pWqZ2pppYF6vFHVNqdmRsOUtI87ytx443drlT73r9XGNVuFsmrhIdW0ssLjwpMrWdPlbeFmNRmNC58K+yy5oPCtq8cK/OJyosBfLlvh0DB4GoWVxC+O/WI1aRnC8nI6jNSy+nMf9yV1Wnp2RmK7eBs2IcYIojDBCMME6GVQ5gB++uiWFSXye/L502QkV5XZZBWLJRIkyeITdVmqaxJ10TUZKVbd/v/tq6339xWq1wWh8slx3jqhagtym47zeeg4uSMof4SLdDE/cwAD76JvFrWOffCuw9llUYvtwPkGtDyYUSual8rFPboOrydQH4Gma6hZKPTsZ5/jewivyVddwe4edMl57+I3OVRn0USE0RIAAAAJcEhZcwAACxMAAAsTAQCanBgAAAZeSURBVHic7d2xTxp9HMfxD9Skl2MyciQt4HIaJnspxH+gTe2gy0Me6OAxNqZOdUA6cfEvaDdjOuoErdJEp8b+EXUyeou0XiJ41KQQBuT3DIpP+1jbPnDw036/r+SWenf84PeuOfDu8OEnLMvyn5yczJbL5Tnbtieq1aparVaHms3mzzZjkiiKgmAw2AoGgw1d13ei0ejKq1evVrva2eLi4iPDME4ACF5u7mIYxkk2m314eYbP+P77D5Zl+W3bfrO+vv5Xo9GApmlIp9OYnp7G+Pg47ty5g0AgcNX+mET1eh2O42Bvbw9bW1soFAqoVCpQVRXJZHJd1/XU0tJS+8odvHjxIhGPx2s4ryeTyQjXdQW7mVzXFaZpXvw2iMfjtVwud/+Hk29Zlr8z+aFQSJRKJdnjZx7Z2NgQoVBIABCJRKJmWZb/UgCmab7tTL7jOLLHzDzmOM5FBKZpFr+b/MXFxUeqqgoA/D//D7axsSEACFVVxcWBoWVZ/s7RfiaTkT1G1medY4LzOQeeP3+eASA0TeMDPgJc1xWapgkAYmFhwfSXy+U5AEin0xgeHv7ddxzshhoeHkYqlQIAHBwczPlt254AgOnpaakDY4MzMzMDALBte8JfrVZVABgfH5c6KDY4Y2NjAIDj4+OAT1EU0Ww28fXrV/6Ej4hGo4FAIIDbt2/Dh7NPiSCEkDwsNkg+39lfAS5/IsRI4QCI4wCI4wCI4wCI4wCI4wCI4wCI4wCI4wCI4wCI4wCI4wCI4wCI4wCI4wCI4wCI4wCIkxbA9vY2JicnMTk5ie3tbVnDkOa6PH9p5wRGo1F8+vQJABCJRFAulwf6+LLJfv6dcwKlBdAZQAe1k1JlP38+KZQB4ADI4wCI4wCI4wCI4wCI4wCI4wCI4wCI4wCI4wCI4wCI4wCI4wCI4wCI4wCI4wCI4wCI4wCI4wCI4wDY2RcKdavdbot8Pi/C4bD0r0ijsoTDYZHP50W73e563r7ZX28B5PN56S8I1cWyrJ4D6Pm6gEgkgs+fP+Pp06dIp9O4detWV/thv+f09BSFQgGvX79GOBy+uLjk//LswpDOjt6/f8+TPyCtVgtTU1MAep83zw4CefIHZ2hoyLN98bsA4jgA4jgA4jgA4jgA4jgA4jgA4rx7Q3mFjx8/Ynl5Gbu7u/9ru1gshmfPnuHevXsDGc9Vj3fd1vda338DdDP5ALC7u4vl5eWBjeeqx7tu63ut7wF0M/lebNvNPq+aiOu0vtf4GIA4DoA4DoC4vgcQi8WkbNvNPn/0s+u2vtf6HsD8/HxXTyQWi2F+fn5g47nq8a7b+l7z7ISQDx8+eDYo9msPHjwAcI1OCGE3EwdAHAdAHAdAHAdAHAdAHAdAnGcBnJ6eerUr9gutVgvA5W8d6UbPAYTDYQBAoVC4GBjrn1arhUKhAODf175XfHHoDV28uDi05wDa7bawLEtEIhHh8/mkvyh/+uLz+UQkEhGWZXlyebi0bw1jcvHfAhgADoA8DoA4DoA4DoA4DoA4DoA4DoA4DoA4DoA4DoA4DoA4DoA4DoA4DoA4DoA4DoA4DoA4DoA4DoA4DoA4DoA4DoA4DoA4DoA4DoA4v6IoAIB6vS55KGxQOnOtKAr8wWCwBQCO40gdFBucw8NDAICmaS1/MBhsAMDe3p7UQbHB2d/fBwCMjIzU/bqu7wDA1taW1EGxwdnc3AQA6Lq+449GoyvA2R0+arWa1IGx/nNdF8ViEQAwOjq6AgAwDOMEgMhkMl3fcIDdDKZpCgDifM7P3gY+fvz4b1VVsbq6infv3slJk/VdqVTC2toaVFXF1NRU8rsfmqb5FoAIhULCcRzZoTKPOY4jQqGQACBM0yx25v3igyBd11PxePzL0dERDMNAqVQaWJmsv0qlEgzDwNHRERKJxBdd15/8cMVcLnc/kUjUcH4DIdM0heu6suNlXXJdV8zOzl7cECqRSNRyudz9b+f80p0GLcvy27ZdXF9fTzYaDWiahlQqhZmZGYyNjeHu3bsIBAJ96JT1ql6v4/DwEPv7+9jc3ESxWESlUoGqqkgmk290XX+ytLTU/q2dZbPZh513B7zc3MUwjJNsNvvw8gyf+eW9RhcWFsyDg4M527Ynjo+PA5VKZajZbP5qMyaBoijQNK01MjJS13V9Z3R0dOXly5drP9vmH5kd4u9LIpCkAAAAAElFTkSuQmCC;fontFamily=Times New Roman;" parent="1" vertex="1">
          <mxGeometry x="690" y="280" width="40" height="40" as="geometry" />
        </mxCell>
        <mxCell id="s9ZdvNC-4ONlF8Tl6-EY-27" value="" style="endArrow=classic;startArrow=classic;html=1;rounded=0;exitX=0;exitY=0.5;exitDx=0;exitDy=0;entryX=0;entryY=0.5;entryDx=0;entryDy=0;fontFamily=Times New Roman;" parent="1" source="s9ZdvNC-4ONlF8Tl6-EY-3" target="s9ZdvNC-4ONlF8Tl6-EY-23" edge="1">
          <mxGeometry width="50" height="50" relative="1" as="geometry">
            <mxPoint x="570" y="340" as="sourcePoint" />
            <mxPoint x="620" y="290" as="targetPoint" />
          </mxGeometry>
        </mxCell>
        <mxCell id="s9ZdvNC-4ONlF8Tl6-EY-28" value="" style="endArrow=classic;startArrow=classic;html=1;rounded=0;entryX=0;entryY=0.5;entryDx=0;entryDy=0;exitX=1;exitY=0.5;exitDx=0;exitDy=0;fontFamily=Times New Roman;" parent="1" source="s9ZdvNC-4ONlF8Tl6-EY-23" target="s9ZdvNC-4ONlF8Tl6-EY-26" edge="1">
          <mxGeometry width="50" height="50" relative="1" as="geometry">
            <mxPoint x="570" y="340" as="sourcePoint" />
            <mxPoint x="620" y="290" as="targetPoint" />
          </mxGeometry>
        </mxCell>
        <mxCell id="s9ZdvNC-4ONlF8Tl6-EY-29" value="" style="fontColor=#0066CC;verticalAlign=top;verticalLabelPosition=bottom;labelPosition=center;align=center;html=1;outlineConnect=0;fillColor=#CCCCCC;strokeColor=#6881B3;gradientColor=none;gradientDirection=north;strokeWidth=2;shape=mxgraph.networks.secured;fontFamily=Times New Roman;" parent="1" vertex="1">
          <mxGeometry x="820" y="246" width="20" height="30" as="geometry" />
        </mxCell>
        <mxCell id="s9ZdvNC-4ONlF8Tl6-EY-30" value="" style="fontColor=#0066CC;verticalAlign=top;verticalLabelPosition=bottom;labelPosition=center;align=center;html=1;outlineConnect=0;fillColor=#CCCCCC;strokeColor=#6881B3;gradientColor=none;gradientDirection=north;strokeWidth=2;shape=mxgraph.networks.security_camera;fontFamily=Times New Roman;" parent="1" vertex="1">
          <mxGeometry x="810" y="330" width="40" height="30" as="geometry" />
        </mxCell>
        <mxCell id="s9ZdvNC-4ONlF8Tl6-EY-31" value="" style="fontColor=#0066CC;verticalAlign=top;verticalLabelPosition=bottom;labelPosition=center;align=center;html=1;outlineConnect=0;fillColor=#CCCCCC;strokeColor=#6881B3;gradientColor=none;gradientDirection=north;strokeWidth=2;shape=mxgraph.networks.tablet;fontFamily=Times New Roman;" parent="1" vertex="1">
          <mxGeometry x="810" y="286" width="40" height="30" as="geometry" />
        </mxCell>
        <mxCell id="s9ZdvNC-4ONlF8Tl6-EY-32" value="&lt;font style=&quot;font-size: 12px;&quot;&gt;Room display&lt;/font&gt;" style="text;html=1;strokeColor=none;fillColor=none;align=center;verticalAlign=middle;whiteSpace=wrap;rounded=0;fontFamily=Times New Roman;fontSize=12;" parent="1" vertex="1">
          <mxGeometry x="850" y="285" width="40" height="30" as="geometry" />
        </mxCell>
        <mxCell id="s9ZdvNC-4ONlF8Tl6-EY-33" value="&lt;font style=&quot;font-size: 12px;&quot;&gt;Door Lock&lt;/font&gt;" style="text;html=1;strokeColor=none;fillColor=none;align=center;verticalAlign=middle;whiteSpace=wrap;rounded=0;fontFamily=Times New Roman;fontSize=12;" parent="1" vertex="1">
          <mxGeometry x="850" y="246" width="40" height="30" as="geometry" />
        </mxCell>
        <mxCell id="s9ZdvNC-4ONlF8Tl6-EY-34" value="&lt;font style=&quot;font-size: 12px;&quot;&gt;Motion sensor&lt;/font&gt;" style="text;html=1;strokeColor=none;fillColor=none;align=center;verticalAlign=middle;whiteSpace=wrap;rounded=0;fontFamily=Times New Roman;fontSize=12;" parent="1" vertex="1">
          <mxGeometry x="850" y="330" width="40" height="30" as="geometry" />
        </mxCell>
        <mxCell id="s9ZdvNC-4ONlF8Tl6-EY-35" value="" style="endArrow=classic;startArrow=classic;html=1;rounded=0;fontSize=9;entryX=0;entryY=0.5;entryDx=0;entryDy=0;entryPerimeter=0;exitX=1;exitY=0.25;exitDx=0;exitDy=0;fontFamily=Times New Roman;" parent="1" source="s9ZdvNC-4ONlF8Tl6-EY-26" target="s9ZdvNC-4ONlF8Tl6-EY-29" edge="1">
          <mxGeometry width="50" height="50" relative="1" as="geometry">
            <mxPoint x="670" y="330" as="sourcePoint" />
            <mxPoint x="720" y="280" as="targetPoint" />
          </mxGeometry>
        </mxCell>
        <mxCell id="s9ZdvNC-4ONlF8Tl6-EY-36" value="" style="endArrow=classic;startArrow=classic;html=1;rounded=0;fontSize=9;entryX=0;entryY=0.5;entryDx=0;entryDy=0;entryPerimeter=0;exitX=1;exitY=0.5;exitDx=0;exitDy=0;fontFamily=Times New Roman;" parent="1" source="s9ZdvNC-4ONlF8Tl6-EY-26" target="s9ZdvNC-4ONlF8Tl6-EY-31" edge="1">
          <mxGeometry width="50" height="50" relative="1" as="geometry">
            <mxPoint x="670" y="330" as="sourcePoint" />
            <mxPoint x="720" y="280" as="targetPoint" />
          </mxGeometry>
        </mxCell>
        <mxCell id="s9ZdvNC-4ONlF8Tl6-EY-37" value="" style="endArrow=classic;startArrow=classic;html=1;rounded=0;fontSize=9;exitX=1;exitY=0.75;exitDx=0;exitDy=0;fontFamily=Times New Roman;" parent="1" source="s9ZdvNC-4ONlF8Tl6-EY-26" target="s9ZdvNC-4ONlF8Tl6-EY-30" edge="1">
          <mxGeometry width="50" height="50" relative="1" as="geometry">
            <mxPoint x="670" y="330" as="sourcePoint" />
            <mxPoint x="720" y="280" as="targetPoint" />
          </mxGeometry>
        </mxCell>
        <mxCell id="s9ZdvNC-4ONlF8Tl6-EY-38" value="" style="shape=image;verticalLabelPosition=bottom;labelBackgroundColor=default;verticalAlign=top;aspect=fixed;imageAspect=0;image=data:image/png,iVBORw0KGgoAAAANSUhEUgAAAIAAAACACAYAAADDPmHLAAABgmlDQ1BzUkdCIElFQzYxOTY2LTIuMQAAKJF1kc8rRFEUxz8GkV+jWEgWL2E1Iz9qYmMx8quwGKMMNjNv3ptR82Ze740kW2WrKLHxa8FfwFZZK0WkZGFlTWyYnvNm1Ejm3M49n/u995zuPRc84ZRq2BU9YKSzVmgsqMxF5pWqZ2pppYF6vFHVNqdmRsOUtI87ytx443drlT73r9XGNVuFsmrhIdW0ssLjwpMrWdPlbeFmNRmNC58K+yy5oPCtq8cK/OJyosBfLlvh0DB4GoWVxC+O/WI1aRnC8nI6jNSy+nMf9yV1Wnp2RmK7eBs2IcYIojDBCMME6GVQ5gB++uiWFSXye/L502QkV5XZZBWLJRIkyeITdVmqaxJ10TUZKVbd/v/tq6339xWq1wWh8slx3jqhagtym47zeeg4uSMof4SLdDE/cwAD76JvFrWOffCuw9llUYvtwPkGtDyYUSual8rFPboOrydQH4Gma6hZKPTsZ5/jewivyVddwe4edMl57+I3OVRn0USE0RIAAAAJcEhZcwAACxMAAAsTAQCanBgAAA6mSURBVHic7Z1fTFtlH8e/59AWWgq0QqFABtlahlliKq0mRi9mosYwuHmH+5NRknk1vZNNwJiZunBlIpvxRr3R6OsWHS+DC0piMi+ciTcKSmaGBQoJEFooLV0pLaPted4LdiodMPrn9JRynk9yEnq253l+7fM9z3n+/J7fw+Ap2Gw29uHDh+3z8/OXnE7ncysrK6qVlRXZxsbG05JRckRRUREqKiqiFRUVIYPBcP/IkSNfffbZZ/9NK7Pu7u43TCbTQwCEXvl7mUymh11dXa/trOEtmCdv2Gw21ul0/u/OnTv/CYVC0Ol0OHv2LFpaWtDQ0IDq6moUFxfvlR8lh6yvr8PlcmFqagp2ux23b9+Gx+OBSqXC6dOn7xgMhjPXrl3j9szggw8+sJjN5lU8Vk9HRwfx+XyEkp/4fD5itVrjrYHZbF7t6elp2rXybTYby1d+ZWUlGRoayrX9FIEYHBwklZWVBACxWCyrNpuN3SEAq9U6wFe+y+XKtc0UgXG5XHERWK3W/oTK7+7ufkOlUhEA9Mk/xAwODhIARKVSkXjH0GazsXxvv6OjI9c2UrIM3yd4XOfAe++91wGA6HQ62uGTAD6fj+h0OgKAdHZ2Wtn5+flLAHD27FlotdpkRxyUPEWr1eLMmTMAgLm5uUus0+l8DgBaWlpyahhFPFpbWwEATqfzOXZlZUUFAA0NDTk1iiIeRqMRAOD1eouZoqIisrGxgWAwSGf4JEIoFEJxcTEKCwvBYGuWCISQHJtFEROG2VoF2DkjRJEUVAAShwpA4lABSBwqAIlDBSBxqAAkDhWAxKECkDhUABJHlmsDDhoOhwM3b97E6OgoxsbG4Ha7c2qPXq+H2WyGxWJBe3s7GhsbBS+DAMi1n0LO4TiOfPrpp0SpVObcl3+vS6lUkr6+PsJxXMbfl8+TLgZh67s3Nzfjp59+AgC0tbWhtbUVZrMZR48ejS+c5MKu2dlZjI2NYXh4GAMDAwCA5uZm2O32jOzi01IBAOjr68P7778PrVaLL7/8EqdOncq1Sbtit9vx7rvvYnV1FX19fbh8+XLaeVEBPMbhcKCpqQnhcBg//vjjga18HrvdjvPnz0OpVOLPP/9Mu09Al4Mfc/PmTYTDYbS1tR34yge2XPfa2toQDodx69atjPOTvABGR0cB/Osnlw/w/pu87ZkgeQGMjY0BAMxmc44tSR7eViEEIPk+AP8uDAQCGfWqCSEIBALw+/0Ih8OIRCLY3NwEACgUCsjlciiVSmg0GpSWlmZcVmlpafzvdKCdwMfwP8Ta2lpa6SORCBYXF+H1ehGLxZJKU1BQgPLyctTU1EAul6dVbklJCQAqgIxJVwAcx8HlcsHtdoPj9t5y/zRYloVer0d1dTVYNrW3sVACoFPBaRCJRDA1NYX19fWM8uE4DouLiwgEAjAajWm3Bpkg+U5gqoRCITx48CDjyt9OMBjEgwcPEAqFBMszWagAUoB/8vnOnZBsbm5iamoKkUhE8LyfBhVAknAcl7XK59nc3MT09HTafYp0oAJIEpfLJWizvxfBYBAulyvr5fBQASRBJBIR1S/A7XaL9iqgAkiCxcVFUZtlfnQgBlQA+0AIwcrKiujler1eUeZmqAD2IRAIiPr088RiMQQCgayXQyeC9sHv9+96PxwOx/9No9FAqVSmlG8y6f1+P8rKylK0ODWoAPYhHA7vuOd2uzE5ORlvohmGwfHjx6HX65PKM9n0u5UtNAdGALOzsxgeHgawtTZ/9OhRUdPvxZO98XA4nFB5wFY/YXJyEmVlZfu2BKmkF2MkcGD6AHa7HV6vF16vFyMjI6Kn34snJ378fv+unTNCyJ6vi3TTZ3PSiefACGB7T9vj8YieXqocGAEcVBQKRcJnjUazqzMHy7JJxVlMJf2TZWcDKoB9eHKJVqlU4vjx4wmVyLIsGhoaUFRUtG9+qaQXY3n4wHQCDypKpXKHs4her0dZWVn8na3VapOq/FTTpzq0TAcqgH3QaDRYXl7ecV+pVGZUQcmk12g0aeefLPQVsA+lpaUoKCgQvdyCgoK442c2oQLYB4ZhUF5eLnq55eXlouxJpAJIgpqampSdNjOBZVnU1NSIU5YopeQ5crk86WleIdDr9aI5iFIBJEl1dTXUanXWy1Gr1aiurs56OTxUAEnCsiyMRmNWJ2cUCgWMRqO4rxvRSjoEyOVyNDQ0ZEUECoUCDQ0Nou8NoAJIEZVKhRMnTgh6toJarcaJEyegUqkEyzNZqADSQC6X49lnn814dMD39hsbG3OyKwigM4Fpw7IsamtrUVlZmZPNoUJBBfAYQkhaEy9yuRz19fWoq6sTbXu4kD6KOd8dzMfl++WXX+BwOLC0tJRRflVVVWhsbMTJkyeTiqtXXV0Nt9uN8fFxHDt2LKOyxcLpdOL555+HXq9PexNJzmMEEULQ19eHpqYm9Pb24t69exlXPgAsLS3h3r176O3tRVNTE65fv/5UcfPRNvhIIfkAb6vFYsk4r5y8ArIVl2+3uHpXrlzB3bt394yrZ7FYMDIyguHhYbz11lsZfS+xsNvtAIQRQE5eAWLF5Usmrl6+holTqVQYGxvLvzBxDocDH330EQBkPShjS0sLvvjiCwDA1atX4XA4dvyfxsZG9Pb2AgDeeecdQR1KhYYXNAD09vYKEjdYdAGIHZcvmbh6ly9fxptvvonV1VWcO3cOFy9eRH9/P5xOZ052BfFwHAen04n+/n5cvHgR58+fx+rqKpqbm9HZ2SlYOaIGiz516hQBQL755huytrYmyvX1118TAKSlpWVPuziOI319fQc6WLRKpSLXr1/P72DRuRh2pTJscjgcuHXrFkZHRzE6OnogwsVbLBZYLBZcuHBBsHDxOYsSJlRcvlTgOC6+x06s73nQyfk8gJgh2MVcXs036C8jcagAJA4VgMShApA4VAAShwpA4lABSBwqAIlDBSBxqAAkDhWAxKECkDhUABInp17BYpFLr56DjugC4PfZz87OilYmX5aYe/zzBdEFkAs/fCH96A8boguArwQ+rq8YCOlHf9gQXQDt7e1QKpUYGBgQxQXbbrdjYGAAKpUKFy5cyHp5+YboAhDTDz8bfvSHjZzsDCK7bA1raWmJbw1L14eP47j41jD+yQeA5ubmPbeGSZXtv4Wo+wJ4xPDDF9KP/rDB/0YHYnu4kH742fKjP2zk3enhRqMRS0tLCAaDAACfz5dUeHbK7uR8X0CqqFSqhL4BLwRKZuSNAIqLixGNRuOfxTjGVQrkjQCeDKFGWwBhyBsBFBYWJrwCHj16lENrDg95IwC/358gADEOU5ACeSOAYDCYcIwaHQEIQ14IgBCC1dXVhHtUAMKQFwIIh8MJT39RUZEoBypJgbTCxHEcB47j4tE1ZbLsRpubmZlJmLuuqqrKanlSIqWai8ViiEajiEQiiMVi8c8cx0GhUKCsrCwrByz9/fffYFk2LjTeqYSSOUkJgBASr2z+qWcYJv43x3EIBoMIBALQarWCH3l+//79ePkA8MILLwiav5TZtw9ACElo7vl724XAi4DjOLjdbszMzCTM2mXKX3/9leDYSQUgHEkJgF8o2v4eLigogEwm+3dR4fEYnWEYhMNhOBwOQU6/npmZwcTEBAoKCuIioK5dwvFUATxZ8YQQyGQyFBcXQ61Wo7S0FM888wxKSkoS0hBC8OjRI0xMTGQsAt53UCaTQaFQ4NVXX83JOX6HlZSGgXzc++0tAcMwUKvVqK2thVKpjAuA4ziEQiGMj49jY2MjLeOi0SiGh4fjrQvHcXj77bfTyouyO0kLYHtzvxsFBQXQ6/VQq9VgGAYsy4JhGGxsbOD3339HOBxO2bgffvgBHo8nPtIoLi5GW1tbyvlQ9iYpAfCVuR8Mw6C2thYlJSXxUQIhBJubm/jtt99SWsFzuVz49ttvwXEcZDIZYrEY2tvbBT2siZKEAJKtfB6GYVBXV5dwLEosFkMoFMKvv/4Kj8ezbx5ra2vo7e1FMBiMN/9arRYffvhh0nZQkoPlz63fzcEiXS9ahmFw7NgxVFRUJNwPBoO4e/cuxsfH93RBW1lZwdWrVzE5OQmWZePN/8cffwydTpeWPZRE+LouKiqCrKKiIrqwsCBzuVwwGo2CFcIwDAwGA6LRKObn5+P3OY7D6OgoJiYmUF9fj/r6eqjVang8Hvzxxx8YGRlBKBRCYWEhwuEwWJbFyZMnce7cOcFskzqLi4sAAJ1OF5VVVFSEFhYWSqempgQVALAlgsbGRshkMvzzzz/xaWKO4+D1erGwsICff/4Z4XAYoVAIGxsb8YmlSCQCjuPw0ksv4caNG9SnX0Cmp6cBAOXl5euswWC4D/y7f05oGIaB0WjEiy++GD8jb/u8ArDVR+A4DtFoFJubm/G5g1deeQWff/55Tk7UPMzwcysGg+E+e+TIka8A4Pbt2zvW3IWkqqoKr7/+OmpqauIjBADxIeP2z3q9HleuXMEnn3yCwsLCrNkkRXw+H/r7+wEAdXV1XzEAYDKZHo6Pj5d2dHTgu+++y7oR6+vrmJubg9PpxPT0NPx+P0pLS6HRaGA0GvHyyy9nfYlZqnR0dOD777+HyWQKjI+Pb63adXd3v6FSqQgAMjQ0JNr2JIq4DA4OxrfMdXV1vZagDKvVOgCAVFZWEpfLlWtbKQLjcrlIZWUlAUCsVms/X+/xiSCDwXDGbDb7l5eXYTKZMDQ0JEaLRBGBoaEhmEwmLC8vw2Kx+A0Gw+5j6p6eniaLxbKKxztHrVYr8fl8uRYvJU18Ph9pb2+P7wS2WCyrPT09TdvrfMfg2mazsU6ns//OnTunQ6EQdDodzpw5g9bWVhiNRtTU1ND5+APK+vo6FhcXMT09jeHhYfT398Pj8UClUuH06dP/MxgM565du5ZcyLSurq7XTCbTQxyA8/Lolf5lMpke7ujwbWPf6bXOzk7r3NzcJafT+ZzX6y32eDyydNf3KdmlqKgIOp0uWl5evm4wGO7X1dV9dePGje+flub/CakYLuQe/5kAAAAASUVORK5CYII=;fontFamily=Times New Roman;" parent="1" vertex="1">
          <mxGeometry x="890" y="287.5" width="25" height="25" as="geometry" />
        </mxCell>
        <mxCell id="s9ZdvNC-4ONlF8Tl6-EY-39" value="" style="shape=image;verticalLabelPosition=bottom;labelBackgroundColor=default;verticalAlign=top;aspect=fixed;imageAspect=0;image=data:image/png,iVBORw0KGgoAAAANSUhEUgAAAIAAAACACAYAAADDPmHLAAABgmlDQ1BzUkdCIElFQzYxOTY2LTIuMQAAKJF1kc8rRFEUxz8GkV+jWEgWL2E1Iz9qYmMx8quwGKMMNjNv3ptR82Ze740kW2WrKLHxa8FfwFZZK0WkZGFlTWyYnvNm1Ejm3M49n/u995zuPRc84ZRq2BU9YKSzVmgsqMxF5pWqZ2pppYF6vFHVNqdmRsOUtI87ytx443drlT73r9XGNVuFsmrhIdW0ssLjwpMrWdPlbeFmNRmNC58K+yy5oPCtq8cK/OJyosBfLlvh0DB4GoWVxC+O/WI1aRnC8nI6jNSy+nMf9yV1Wnp2RmK7eBs2IcYIojDBCMME6GVQ5gB++uiWFSXye/L502QkV5XZZBWLJRIkyeITdVmqaxJ10TUZKVbd/v/tq6339xWq1wWh8slx3jqhagtym47zeeg4uSMof4SLdDE/cwAD76JvFrWOffCuw9llUYvtwPkGtDyYUSual8rFPboOrydQH4Gma6hZKPTsZ5/jewivyVddwe4edMl57+I3OVRn0USE0RIAAAAJcEhZcwAACxMAAAsTAQCanBgAAA6mSURBVHic7Z1fTFtlH8e/59AWWgq0QqFABtlahlliKq0mRi9mosYwuHmH+5NRknk1vZNNwJiZunBlIpvxRr3R6OsWHS+DC0piMi+ciTcKSmaGBQoJEFooLV0pLaPted4LdiodMPrn9JRynk9yEnq253l+7fM9z3n+/J7fw+Ap2Gw29uHDh+3z8/OXnE7ncysrK6qVlRXZxsbG05JRckRRUREqKiqiFRUVIYPBcP/IkSNfffbZZ/9NK7Pu7u43TCbTQwCEXvl7mUymh11dXa/trOEtmCdv2Gw21ul0/u/OnTv/CYVC0Ol0OHv2LFpaWtDQ0IDq6moUFxfvlR8lh6yvr8PlcmFqagp2ux23b9+Gx+OBSqXC6dOn7xgMhjPXrl3j9szggw8+sJjN5lU8Vk9HRwfx+XyEkp/4fD5itVrjrYHZbF7t6elp2rXybTYby1d+ZWUlGRoayrX9FIEYHBwklZWVBACxWCyrNpuN3SEAq9U6wFe+y+XKtc0UgXG5XHERWK3W/oTK7+7ufkOlUhEA9Mk/xAwODhIARKVSkXjH0GazsXxvv6OjI9c2UrIM3yd4XOfAe++91wGA6HQ62uGTAD6fj+h0OgKAdHZ2Wtn5+flLAHD27FlotdpkRxyUPEWr1eLMmTMAgLm5uUus0+l8DgBaWlpyahhFPFpbWwEATqfzOXZlZUUFAA0NDTk1iiIeRqMRAOD1eouZoqIisrGxgWAwSGf4JEIoFEJxcTEKCwvBYGuWCISQHJtFEROG2VoF2DkjRJEUVAAShwpA4lABSBwqAIlDBSBxqAAkDhWAxKECkDhUABJHlmsDDhoOhwM3b97E6OgoxsbG4Ha7c2qPXq+H2WyGxWJBe3s7GhsbBS+DAMi1n0LO4TiOfPrpp0SpVObcl3+vS6lUkr6+PsJxXMbfl8+TLgZh67s3Nzfjp59+AgC0tbWhtbUVZrMZR48ejS+c5MKu2dlZjI2NYXh4GAMDAwCA5uZm2O32jOzi01IBAOjr68P7778PrVaLL7/8EqdOncq1Sbtit9vx7rvvYnV1FX19fbh8+XLaeVEBPMbhcKCpqQnhcBg//vjjga18HrvdjvPnz0OpVOLPP/9Mu09Al4Mfc/PmTYTDYbS1tR34yge2XPfa2toQDodx69atjPOTvABGR0cB/Osnlw/w/pu87ZkgeQGMjY0BAMxmc44tSR7eViEEIPk+AP8uDAQCGfWqCSEIBALw+/0Ih8OIRCLY3NwEACgUCsjlciiVSmg0GpSWlmZcVmlpafzvdKCdwMfwP8Ta2lpa6SORCBYXF+H1ehGLxZJKU1BQgPLyctTU1EAul6dVbklJCQAqgIxJVwAcx8HlcsHtdoPj9t5y/zRYloVer0d1dTVYNrW3sVACoFPBaRCJRDA1NYX19fWM8uE4DouLiwgEAjAajWm3Bpkg+U5gqoRCITx48CDjyt9OMBjEgwcPEAqFBMszWagAUoB/8vnOnZBsbm5iamoKkUhE8LyfBhVAknAcl7XK59nc3MT09HTafYp0oAJIEpfLJWizvxfBYBAulyvr5fBQASRBJBIR1S/A7XaL9iqgAkiCxcVFUZtlfnQgBlQA+0AIwcrKiujler1eUeZmqAD2IRAIiPr088RiMQQCgayXQyeC9sHv9+96PxwOx/9No9FAqVSmlG8y6f1+P8rKylK0ODWoAPYhHA7vuOd2uzE5ORlvohmGwfHjx6HX65PKM9n0u5UtNAdGALOzsxgeHgawtTZ/9OhRUdPvxZO98XA4nFB5wFY/YXJyEmVlZfu2BKmkF2MkcGD6AHa7HV6vF16vFyMjI6Kn34snJ378fv+unTNCyJ6vi3TTZ3PSiefACGB7T9vj8YieXqocGAEcVBQKRcJnjUazqzMHy7JJxVlMJf2TZWcDKoB9eHKJVqlU4vjx4wmVyLIsGhoaUFRUtG9+qaQXY3n4wHQCDypKpXKHs4her0dZWVn8na3VapOq/FTTpzq0TAcqgH3QaDRYXl7ecV+pVGZUQcmk12g0aeefLPQVsA+lpaUoKCgQvdyCgoK442c2oQLYB4ZhUF5eLnq55eXlouxJpAJIgpqampSdNjOBZVnU1NSIU5YopeQ5crk86WleIdDr9aI5iFIBJEl1dTXUanXWy1Gr1aiurs56OTxUAEnCsiyMRmNWJ2cUCgWMRqO4rxvRSjoEyOVyNDQ0ZEUECoUCDQ0Nou8NoAJIEZVKhRMnTgh6toJarcaJEyegUqkEyzNZqADSQC6X49lnn814dMD39hsbG3OyKwigM4Fpw7IsamtrUVlZmZPNoUJBBfAYQkhaEy9yuRz19fWoq6sTbXu4kD6KOd8dzMfl++WXX+BwOLC0tJRRflVVVWhsbMTJkyeTiqtXXV0Nt9uN8fFxHDt2LKOyxcLpdOL555+HXq9PexNJzmMEEULQ19eHpqYm9Pb24t69exlXPgAsLS3h3r176O3tRVNTE65fv/5UcfPRNvhIIfkAb6vFYsk4r5y8ArIVl2+3uHpXrlzB3bt394yrZ7FYMDIyguHhYbz11lsZfS+xsNvtAIQRQE5eAWLF5Usmrl6+holTqVQYGxvLvzBxDocDH330EQBkPShjS0sLvvjiCwDA1atX4XA4dvyfxsZG9Pb2AgDeeecdQR1KhYYXNAD09vYKEjdYdAGIHZcvmbh6ly9fxptvvonV1VWcO3cOFy9eRH9/P5xOZ052BfFwHAen04n+/n5cvHgR58+fx+rqKpqbm9HZ2SlYOaIGiz516hQBQL755huytrYmyvX1118TAKSlpWVPuziOI319fQc6WLRKpSLXr1/P72DRuRh2pTJscjgcuHXrFkZHRzE6OnogwsVbLBZYLBZcuHBBsHDxOYsSJlRcvlTgOC6+x06s73nQyfk8gJgh2MVcXs036C8jcagAJA4VgMShApA4VAAShwpA4lABSBwqAIlDBSBxqAAkDhWAxKECkDhUABInp17BYpFLr56DjugC4PfZz87OilYmX5aYe/zzBdEFkAs/fCH96A8boguArwQ+rq8YCOlHf9gQXQDt7e1QKpUYGBgQxQXbbrdjYGAAKpUKFy5cyHp5+YboAhDTDz8bfvSHjZzsDCK7bA1raWmJbw1L14eP47j41jD+yQeA5ubmPbeGSZXtv4Wo+wJ4xPDDF9KP/rDB/0YHYnu4kH742fKjP2zk3enhRqMRS0tLCAaDAACfz5dUeHbK7uR8X0CqqFSqhL4BLwRKZuSNAIqLixGNRuOfxTjGVQrkjQCeDKFGWwBhyBsBFBYWJrwCHj16lENrDg95IwC/358gADEOU5ACeSOAYDCYcIwaHQEIQ14IgBCC1dXVhHtUAMKQFwIIh8MJT39RUZEoBypJgbTCxHEcB47j4tE1ZbLsRpubmZlJmLuuqqrKanlSIqWai8ViiEajiEQiiMVi8c8cx0GhUKCsrCwrByz9/fffYFk2LjTeqYSSOUkJgBASr2z+qWcYJv43x3EIBoMIBALQarWCH3l+//79ePkA8MILLwiav5TZtw9ACElo7vl724XAi4DjOLjdbszMzCTM2mXKX3/9leDYSQUgHEkJgF8o2v4eLigogEwm+3dR4fEYnWEYhMNhOBwOQU6/npmZwcTEBAoKCuIioK5dwvFUATxZ8YQQyGQyFBcXQ61Wo7S0FM888wxKSkoS0hBC8OjRI0xMTGQsAt53UCaTQaFQ4NVXX83JOX6HlZSGgXzc++0tAcMwUKvVqK2thVKpjAuA4ziEQiGMj49jY2MjLeOi0SiGh4fjrQvHcXj77bfTyouyO0kLYHtzvxsFBQXQ6/VQq9VgGAYsy4JhGGxsbOD3339HOBxO2bgffvgBHo8nPtIoLi5GW1tbyvlQ9iYpAfCVuR8Mw6C2thYlJSXxUQIhBJubm/jtt99SWsFzuVz49ttvwXEcZDIZYrEY2tvbBT2siZKEAJKtfB6GYVBXV5dwLEosFkMoFMKvv/4Kj8ezbx5ra2vo7e1FMBiMN/9arRYffvhh0nZQkoPlz63fzcEiXS9ahmFw7NgxVFRUJNwPBoO4e/cuxsfH93RBW1lZwdWrVzE5OQmWZePN/8cffwydTpeWPZRE+LouKiqCrKKiIrqwsCBzuVwwGo2CFcIwDAwGA6LRKObn5+P3OY7D6OgoJiYmUF9fj/r6eqjVang8Hvzxxx8YGRlBKBRCYWEhwuEwWJbFyZMnce7cOcFskzqLi4sAAJ1OF5VVVFSEFhYWSqempgQVALAlgsbGRshkMvzzzz/xaWKO4+D1erGwsICff/4Z4XAYoVAIGxsb8YmlSCQCjuPw0ksv4caNG9SnX0Cmp6cBAOXl5euswWC4D/y7f05oGIaB0WjEiy++GD8jb/u8ArDVR+A4DtFoFJubm/G5g1deeQWff/55Tk7UPMzwcysGg+E+e+TIka8A4Pbt2zvW3IWkqqoKr7/+OmpqauIjBADxIeP2z3q9HleuXMEnn3yCwsLCrNkkRXw+H/r7+wEAdXV1XzEAYDKZHo6Pj5d2dHTgu+++y7oR6+vrmJubg9PpxPT0NPx+P0pLS6HRaGA0GvHyyy9nfYlZqnR0dOD777+HyWQKjI+Pb63adXd3v6FSqQgAMjQ0JNr2JIq4DA4OxrfMdXV1vZagDKvVOgCAVFZWEpfLlWtbKQLjcrlIZWUlAUCsVms/X+/xiSCDwXDGbDb7l5eXYTKZMDQ0JEaLRBGBoaEhmEwmLC8vw2Kx+A0Gw+5j6p6eniaLxbKKxztHrVYr8fl8uRYvJU18Ph9pb2+P7wS2WCyrPT09TdvrfMfg2mazsU6ns//OnTunQ6EQdDodzpw5g9bWVhiNRtTU1ND5+APK+vo6FhcXMT09jeHhYfT398Pj8UClUuH06dP/MxgM565du5ZcyLSurq7XTCbTQxyA8/Lolf5lMpke7ujwbWPf6bXOzk7r3NzcJafT+ZzX6y32eDyydNf3KdmlqKgIOp0uWl5evm4wGO7X1dV9dePGje+flub/CakYLuQe/5kAAAAASUVORK5CYII=;fontFamily=Times New Roman;" parent="1" vertex="1">
          <mxGeometry x="890" y="332.5" width="25" height="25" as="geometry" />
        </mxCell>
        <mxCell id="s9ZdvNC-4ONlF8Tl6-EY-40" value="" style="shape=image;verticalLabelPosition=bottom;labelBackgroundColor=default;verticalAlign=top;aspect=fixed;imageAspect=0;image=data:image/png,iVBORw0KGgoAAAANSUhEUgAAAIAAAACACAYAAADDPmHLAAABgmlDQ1BzUkdCIElFQzYxOTY2LTIuMQAAKJF1kc8rRFEUxz8GkV+jWEgWL2E1Iz9qYmMx8quwGKMMNjNv3ptR82Ze740kW2WrKLHxa8FfwFZZK0WkZGFlTWyYnvNm1Ejm3M49n/u995zuPRc84ZRq2BU9YKSzVmgsqMxF5pWqZ2pppYF6vFHVNqdmRsOUtI87ytx443drlT73r9XGNVuFsmrhIdW0ssLjwpMrWdPlbeFmNRmNC58K+yy5oPCtq8cK/OJyosBfLlvh0DB4GoWVxC+O/WI1aRnC8nI6jNSy+nMf9yV1Wnp2RmK7eBs2IcYIojDBCMME6GVQ5gB++uiWFSXye/L502QkV5XZZBWLJRIkyeITdVmqaxJ10TUZKVbd/v/tq6339xWq1wWh8slx3jqhagtym47zeeg4uSMof4SLdDE/cwAD76JvFrWOffCuw9llUYvtwPkGtDyYUSual8rFPboOrydQH4Gma6hZKPTsZ5/jewivyVddwe4edMl57+I3OVRn0USE0RIAAAAJcEhZcwAACxMAAAsTAQCanBgAABIUSURBVHic7Z19TFPX/8ffLQTaEkCEVp5BK0PnlrrWqdNFt+l3iJjpj4I6qO6PbVk0mQ6moEbTqEsYxqrTOXWy6dx0CoqAosMHNl10cxM3ZGYiVnyiRdAiYItK6fn90d0LladSWkt77yvpP+eee8/n3vP+nOdzykEPKJVKbmNjY+qdO3c+UqvVL9+/f19w//59z8ePH/d0G4uT4PF4CAoKMgYFBRnEYnFFRETEjk2bNn1v08MyMjL+J5FIGgEQ9ue6P4lE0rh06dIpnXPYDOfZAKVSyVWr1Qfz8/P/z2AwQCgUYvbs2UhISEBMTAxCQkLg4+PT3fNYnIher4dWq0VVVRWKi4uRm5uL+vp6CAQCJCYm5ovF4uTVq1ebun3AsmXLZFKptAH/qWfevHlEp9MRFtdEp9MRhUJBlwZSqbQhMzPzlS4zX6lUcqnMF4lEpKCgwNn2s9iJw4cPE5FIRAAQmUzWoFQquZ0EoFAoDlGZr9VqnW0zi53RarW0CBQKRZ5F5mdkZPxPIBAQAKznuzGHDx8mAIhAICB0w1CpVHKp1v68efOcbSOLg6HaBP/lOfDJJ5/MA0CEQiHb4LMRrVZLwsLCSFhYGMnKyiIGg8HZJnWLTqcjQqGQACBpaWkK7p07dz4CgNmzZyMgIMDaHgdLB3Jzc1FTU4OamhosX74c0dHRyM7OxkAcMAsICEBycjIA4Pbt2x9x1Wr1ywCQkJDgVMNcGZPJ3LXmcrmIjo5GXV0dli1bhqioqAEphBkzZgAA1Gr1ywgPD28FQKqqqpxdOrkURqORnDlzhmRkZJCYmBgCgCQnJ5PTp08TpVJJoqOj6f63SCQin3/+OWlpaXG22YQQQq5du0YAkIiIiFYOj8cjjx8/xqNHj9gRPiuorq7G2rVrkZ+fj8bGRjrc398fmzdvRkREBACAEIKzZ8/iu+++w82bNwEAIpEI6enpWLx4MXg8njPMBwAYDAb4+PjA29sbHJhVCkKI0wxyBa5evYqVK1eisLAQRqMRADBkyBCMGTMGY8aMwfjx4+Ht7d3pvu6EsG3bNiQmJj7PV7CAwzHPArAC6AVCCDZt2oQVK1bg8ePH4HA4mDx5MubOnYuYmBj6Q1rznMOHD+PLL78EAAQHB0Oj0Vh9v72h0vV0SuouQm1tLRQKBU6fPg0AmDx5Mt5//32Eh4f36TkPHjzA/v37ceTIETps/vz5dCbo9Xq0tbXBz8/PfsZbCSuAbqipqcGkSZNw48YNCAQCLF68GFOnTu3SY1tbW+Hh4QEu13KIvWPGP336FAAwZcoUrFmzBhMmTEBzczOys7OxdetWPHz4EImJicjNzYWHh8dzeUcKAsCZjdIBx927d8mwYcMIABIVFUX27dtHSktLLX4nT54kK1asoOPFxMSQAwcOkNLSUpKXl0fkcjnx8vKiewJTpkwh586dI4QQ0tTURFatWkUCAgI6zd/Pnz+fmEwmh79jhzRZAXSksbGRiMViOvMPHTpkkfHHjx8nixYtIsHBwfRH9PDwIADIO++802PGE0LImTNnyODBg+nrsbGxJCsri2RnZxNPT08CgHz88ccOf09WAN0we/Zsqo/cKfP37t1LwsPD6Y8XGRlJVCoVycrK6uTJz2Y8RUJCAh1HqVSS06dP089fs2YN4XK5BADZvHmzQ9+TMQJYtGgR8fb27vNSKm9vb5KSkkJnzq5du0hgYCABQIYNG0Z27dpFWltbCSGE/PHHH4TD4fSY8RRnz54l1MzrCy+8QHJzcy1Elp6eTgAQf39/Ultb67DvQr2n23cDeTwenjx5Aj8/P6sbV21tbWhqaoK3tzeOHz+OqqoqZGRkoLGxEVKpFCdPnsTgwYMt7ikvL4enpydGjRrV6/PLysowc+ZM1NTUQCQS4auvvqKfRwhBeno6ysvL8e6772Lfvn19f2krYMw4AIfDgZ+fH9LS0vp038aNG9HU1IQ9e/ZgwYIF0Ov1mDhxIo4fPw5fX99+26XVahEXF4eKigrIZDKsW7eOzpSbN2/iww8/hMlkQmlpKd54441+p/csVFqdlwaxWLB161bo9Xq8+eabOHXqlF0yHwBCQkJQVFSEQYMGoaysDPv376evRUdHQy6XgxACpVJpl/S6w+VLgMrKSuzduxdlZWW4dOkSamtrLa57eXnh6dOnNlUB1L0dCQ4OhlQqhUwmQ2pqKmJjY/tl/4EDBzB37lxwuVx88803iIqKAgA0NDQgKSkJHh4e0Gg0EAqF/UrnWTqOZ7hkI9BkMpH169cTPp/fY2MuKirKoltm7c/Ly4tERUX1GIfP5xOVStXvfrtcLicAyKxZsywahFKplAAgGzZssNNXa4d6B5csAQghiI+PR0lJCQBALpdjxowZkEqlGDp0qMPG1wkhqK6uxqVLl3D06FEcOnQIABAfH4/i4mKb0/3999/x2muvQSAQ4ODBg/RMYXFxMVQqFcaPH4/ffvvNbu8BuHgjUKVSYcmSJQgICMD27dsxffp0p9hRXFyMBQsWoKGhASqVCunp6TY/SyKR4PLly1iyZAn9Ps3NzUhMTAQhBDqdDv7+/vYy3XUbgZWVlVi1ahUAODXzAfMqqm3btgEAVq5cicrKSpufpVAoAAB//vknHebr64vg4GCYTCbcuHGjf8Z2g8sJYO/evWhpaYFcLndq5lMkJCRALpejpaWlX3320aNHAwA0Go1FONX4q66utt3IHnA5AZSVlQFoX9c2EKDWU1K22cKIESMAoFMvhhLArVu3bH52T7icAC5dugQAkEqlTrakHcqW/gggPDwc3t7eaG5uhl6vp8NFIhEA4M6dO/0zshtcTgCUhwwdOtTJlrQzbNgwAJ29t69Q6wmoVcaAeRwDgMNWFrucACictZSqK+xhS1VVFVpaWjBo0CCL0caGhgYA5vWHjsBlBeBu/PXXXwDMw8AdoQQQGhrqkHRZAQwQKioqAHQWQH19PQDz3IEjYPSaQKPR2KftcAsXLkR2drZDbKEatx0F0NLSgmvXroHD4WDcuHEOSZfRJYBare5T/BUrVjjEjvLycpSUlIDD4eDVV1+lw//++28YjUa89NJLdp8MomC0AE6cOGF13IULF9p1KLYjmZmZMJlMmD59ukVRT40KvvXWWw5JF2C4AL7++mur4zrK+3/++WeUlJTAy8sL7733Hh1uMBhw8uRJAHDoDiLGCsBgMNBbtXrDUd7f1NSExYsXAzDPaAYFBdHXCgsLodfrIZPJMGnSJLunTcFYAVy5csXquI7w/gcPHmDSpEmoqKhAUFAQ5s6dS1978uQJ8vLMx/gsX77c7ml3hLECKCoqsipef7yf2kT6LBqNBq+//jrKy8shFAqhUqksBn+2b9+Ohw8fYuTIkQ7fQMpYAXz77bdWxbPF+ysqKjBr1ix4eXlh9OjR9FoLQgiKioowceJEXL16FaGhoRZbygHz4pDCwkJ4enoiJyfH4SOejBwH0Ol0aGpq6jWeLd4/a9YsFBUV0ZleXl6O6upqnD17FuvXr6ernqFDh2LdunUIDAyk79VqtVi3bh0Ac89gwoQJfUrbFlxuRRDlEc3NzTY/48SJE5DL5b3Gu3v3rtUC6FiEe3h4YNq0aTh16hSePHmCIUOG4N69ewDMB0kkJiYiKSkJfD6fvker1SItLQ11dXUYN24czp0759BNoozeHp6bm9trHFvr/oSEBKSkpCAkJAQxMTHYtGkT7t27hyFDhmDOnDmIj4/vdJBETU0NPv30U9TV1UEikeDYsWPPbYcw40oAQggCAgLQ1tbWY7y+eD/QXgKUlpZahN+6dQvNzc0YMWIEPD0t/Y0QghMnTmDLli0wGAyQSCT45ZdfMGjQIKvTtRXGlgAajabXzLdnv59a5/8s9+/fx9atW3HmzBkAwNSpU5GXl/dcMr8jjBPAr7/+2mscR436AeaS5cCBAygpKYHRaASfz0dWVhYWLVrklDUOjBPA7t27e7xu71G/trY2VFZW4uLFiygrK8M///wDQgg4HA7i4uKwYcMGvPjii3ZLr68wqg1gzfRvX+t+iq7aAP/++y8+++wzaLVaOszT0xMzZ87EqlWrIJFI+pyOvWBkG6C36V97eP/u3bshl8vh6+uLnTt3QqvVIiwsDJMnT0ZcXBwSEhIs+v7OhlElwJYtW3qs3231fsByHEAgECApKQn79+/H06dPUV1d3Wmlj7Nx2Z1B/aGn6V971f1jx46FwWDAnj17Ou0sHogwRgC9Tf/aq+V/4cIFHDt2DGPHjgUAiMXiPp8r+DxhTBugp+lfe7f84+PjER8fj5s3byIgIKDTANBAYuBaZmd6mv51VL9/oNX7XcGYKqC76V9HrvVzBRjRC9DpdN0Oyfan5d8Rqhfgat+RESXAxYsXu70WHh4OX1/fLn+ZmZnP0UrnwAgBWDP92xWOnBMYKLi9AAghOHjwYJ/vY0rbwO3bADU1NfThC33B1vUArvYd3b4EsGb691mY4v0AA0qAadOm4dy5c31Kw5aegauWAG4/EPTTTz91Gd7d1DCTvB9gQBXQHdevX+8ynAkt/44wVgDUKaMdYZr3AwxoA3THqFGjcPv2bYswe6wHcLXvyMgSQK/Xd8p8Jno/wFABXL58uVMY0+p+CpftBaxfv77P96SkpCA0NBQ7duywCE9KSoK/vz/0ej127tzZ7a5ed4QxJYC3tzdCQkLQ2tqK4uJii2uU91+4cIFRmQ8wSAARERHgcDiorKy0OHUzKSkJMTEx0Ov1XVYN7g5jBECtznl2aJjJ3g8wSADUgpCCggI6jOneDzBEAH5+fggICEBzczPOnz9PhzPd+wGGCIDy/o5eznq/GUYIgKr/O+7bY73fjNsLgMPhIDIyEgDof/livb8dtxeASCQCn89HbW0tvTmU9f523F4AVP1PnbvLer8lbi8Aqv6npn9Z77fErQXg6emJsLAwtLW1IT8/n/X+LnBrAYSHh8PDwwM3btxAc3Mz6/1d4NYCoOr/8+fPs97fDS47HWwNVP1/5MgRZGVlAWC9/1nctgQQCAQQCoX0X7Gx3t81bisA6gTuK1eu0Js8We/vjNsKgBr9MxqNrPf3gNsKgPrzpZEjRwJgvb873FYAra2tAMzHsz969Ij1/m5w215AaWkp/XdrpaWlrPd3g9sK4N69e/jxxx+dbcaAx22rABbrcDkBBAcHAwB4PJ6TLWmHsoWyzZVwOQFIpVIAAJc7cEyn9tnJZDInW9J3Bs5XtBLqI1dVVTnZknaoreasAJ4Dqamp4PP5yMnJgY+Pj7PNgY+PD3JyciAQCJCSkuJsc/qMywkgNjYWa9euBQBs3rzZqSLw8fHBF198AQBYu3YtYmNjnWaLrbjc+QCA2db4+Hh6lc8HH3yA4cOHgxBise3LEfB4PHA4HFy/fh05OTkAzIdDFxcXO+U/f2ylo60EAHE1TCYTUalUhM/nE+odnvdPIBCQDRs2EJPJ5OzP0Weod3DJEqAjlZWV2LdvH8rKylBWVoba2lqHphccHAyZTAaZTIaUlBSXLPaB9hLA5QXAYhuMPiKGpR1WAAyHFQDDYQXAcFgBMBxWAAyHFQDDYQXAcFgBMBxWAAyHSy1n0uv1TjaF5XlB5TWPxwM3KCjICABardapRrE8PzQaDQBAKBQauUFBQQZgYC2xYnEs1BK2wMBAPVcsFlcA6HSAMov7cvToUQCAWCyu4EZEROwAzP+u2dDQ4FTDWByPTqdDXl4eACAyMtJ8br5EImkEQObNm+fshSosDkahUBAA5L88N3cD4+LikgQCAb7//nsUFhY6R5osDqegoAA//PADBAIB3n777USLiwqF4hAAIhKJiFardbZQWeyMVqslIpGIACAKhSKPynd6IEgsFidLpdKHdXV1kEgkFseqs7g2BQUFkEgkqKurg0wmeygWi+d0GTEzM/MVmUzWgP9WjCoUCqLT6ZwtXhYb0el0JDU1lV4BLJPJGjIzM1/pmOedFrIrlUquWq3Oy8/PTzQYDBAKhUhOTsaMGTMwfPhwhIaGDogdOSyd0ev10Gg0uH79Oo4ePYq8vDzU19dDIBAgMTHxoFgsnrN69WqTVQ9bunTpFKp3wP5c9yeRSBqXLl06pXMOm+l1K0taWpri9u3bH6nV6pcfPHjgU19f7+no3TcstsHj8SAUCo2BgYF6sVhcERkZuWPjxo0/9HTP/wM2UUQCt8AiGQAAAABJRU5ErkJggg==;fontFamily=Times New Roman;" parent="1" vertex="1">
          <mxGeometry x="890" y="248.5" width="25" height="25" as="geometry" />
        </mxCell>
        <mxCell id="s9ZdvNC-4ONlF8Tl6-EY-41" value="" style="shape=image;verticalLabelPosition=bottom;labelBackgroundColor=default;verticalAlign=top;aspect=fixed;imageAspect=0;image=data:image/png,iVBORw0KGgoAAAANSUhEUgAAAIAAAACACAYAAADDPmHLAAABgmlDQ1BzUkdCIElFQzYxOTY2LTIuMQAAKJF1kc8rRFEUxz8GkV+jWEgWL2E1Iz9qYmMx8quwGKMMNjNv3ptR82Ze740kW2WrKLHxa8FfwFZZK0WkZGFlTWyYnvNm1Ejm3M49n/u995zuPRc84ZRq2BU9YKSzVmgsqMxF5pWqZ2pppYF6vFHVNqdmRsOUtI87ytx443drlT73r9XGNVuFsmrhIdW0ssLjwpMrWdPlbeFmNRmNC58K+yy5oPCtq8cK/OJyosBfLlvh0DB4GoWVxC+O/WI1aRnC8nI6jNSy+nMf9yV1Wnp2RmK7eBs2IcYIojDBCMME6GVQ5gB++uiWFSXye/L502QkV5XZZBWLJRIkyeITdVmqaxJ10TUZKVbd/v/tq6339xWq1wWh8slx3jqhagtym47zeeg4uSMof4SLdDE/cwAD76JvFrWOffCuw9llUYvtwPkGtDyYUSual8rFPboOrydQH4Gma6hZKPTsZ5/jewivyVddwe4edMl57+I3OVRn0USE0RIAAAAJcEhZcwAACxMAAAsTAQCanBgAAA1eSURBVHic7Z19TBPnH8A/LcKwMkcnL4ISXBCWTGqZ1Wi2GBVQXDSan06WuHbGZNtPtmyTbCgkW4jZErOYzL0lxbgEEpiZ4LAaSIyAc8vcfBmOCP4xhClhtJOXggjEYcf9/sDrT+TFisBdueeTXAJ3vev37vn0uef1DgSaRvewD+Tm5upv3br1anNz838bGxtN7e3thvb29hl37tyZivgEj0hwcDBhYWGesLCwvri4uNqYmJhDn3/+eeG4DrZnz561ZrP5FiCJxX8Xs9l8KysrK2V4Co+SA+Tm5uobGxuPlZaW/qevr4/w8HDS09PZsGED8fHxREVFMWvWrJF2FShMb28vLpeLa9euUV5eTnFxMW1tbRgMBrZs2VIaFxe3bd++fQOjHiA7O9uyZMmSTu7ZY7PZJLfbLQn8E7fbLVmtVm9usGTJks69e/c+P2Li5+bm6uXEj4iIkBwOh9LxCyaI48ePSxERERIgWSyWztzcXP0wAaxW6/dy4rtcLqVjFkwwLpfLK4HVai0Zkvh79uxZazAYJED88qcxx48flwDJYDBI3oJhbm6uXi7t22w2pWMUTDJymeBemsPu3bttgBQeHi4KfBrA7XZL4eHhEiDpAZqbm/8LkJ6ejtFo9K2+IfBbjEYj27ZtA0AP0NjYaALYsGGDgmEJppKNGzcC9wRob283AMTHxysYkmAqWbhwIXCvJTA4OFi6c+cOPT09ooVPI/T19TFr1ixvU7AEIEmSgiEJphqdTsfw1iCBphACaBwhgMYRAmgcIYDGEQJoHCGAxvEbAfypjcKfYvUbAXS6hw5gVg3+FOsMpQN4GE6nk7y8PC5dukRdXR1//fWX0iGNyfz580lMTGTZsmXs2rWL6OhopUPyCQlQuJd6OPn5+VJoaKjiw6rHuxiNRik/P1/pyzgqgKTavgCbzUZRUREASUlJpKamkpCQwIIFC5gxQ50Zl8fj4caNG9TX11NZWUlNTQ0AVquVwsLxzc2YTHQ6nTo7gwoKCti5cydBQUFkZGSwadMmv7qvwuC1PHnyJHa7nf7+fgoKCtixY4fSYQ1BlQI4nU4WLVpEV1cX7733Hps3b1Y6pMfC4XDw5ZdfYjQauXr1KlFRUUqH5EWVvYF5eXl0dXWRlJTEpk2blA7nsdm8eTNJSUl0dnZit9uVDmcYqhFAzn0uXboEQGpqqt9l+yOh0+lISRkcfV1dXQ2oI6eVUY0AcmLX1dUBkJCQoGQ4E8qzzz4LQG1tLaCudgLVCCAj1/MXLFigbCATiHwuzc3NygYyAqoTQEatVb3xoOZzUa0AgqlBCKBxhAAaRwigcYQAGkcIoHGEABpHCKBxhAAaRwigcYQAGkfTAuTk5JCTk6N0GIqi3l6KKeDChQtKh6A40zoHyM7OJisra1wDMCRJIisri+zs7EmITD1MawGcTifV1dX89ttvj7zvpUuXqK6uxul0TkJk6mFaC7Bu3ToAysrKHnlfeZ+0tLQJjUltTGsBXnrpJfR6PefOnaOjo8Pn/To6Ovjll18ICAhg/fr1kxih8kyLQmBOTg49PT18/PHHhIaGetfPmTOHF154gZ9//pmjR48yd+5c/vjjD9rb23G73d7Pvf7664SGhhIWFsbixYtpampiYGCAlStXMmfOnCHf1dXVxUcffURISAj79++fsnOcLKaFAD09PVy9epXMzEwOHjzolaClpYWBgcF3Ixw7dmzU/f/880/v36dPn/b+rdPp+Pvvv5k7dy4wmPiZmZk0NTWxaNGiyTiVKUd1E0PkEbNnzpzxeZ/7EyY2Npa3336b8vJyfvrpJ+85BQUFsXXrVtasWUNsbCxRUVFERkbyzz//0N7eTltbG/X19Zw5c4aysjLu3r0LgF6v58UXXyQtLY3Dhw97v+N+0XwhOTkZUMc1llHlzKDxCACDErz77rtDZg8HBgZis9l48803Wbp0KQEBAXR0dFBbW4vT6fSW8KOjo4mOjsZkMjFnzhz+/fdfLl68iN1u57vvvvPKADBv3jy++uqrR0p8EAL4zHgEkCSJyspKvv76a27fvk1AQACZmZns3r2befPmeT9z/vx5qqqq8Hg8Ix5nxowZpKamsnz5cm8cLpcLu93O/v378Xg8BAUFYbPZSE9PJzAw0OcYhQA+Mh4B0tPTaW9vBwarfocOHRoyr0CSJI4cOcK1a9dG3D8mJobVq1cDcPbsWYKDg9m+ffuQCRwul4sPPviAI0eOADB79mwcDofPMapVgGlRDfR4PDz11FMUFBRw6tSpYZNKLly4MGriA6xatYrIyEgiIyNZtWoV165dG9ZMHBUVxbfffktVVRUmk4mQkJDJOJUpx+9rAXq9nuvXrzNz5kyeeOKJYds7OjqorKwcsq67u5uKigpu3LgBDD4mXy7py1RWVhIfHz+sGpicnMyVK1fo7+/n119/9dYy/BW/zwHmzZtHaGjoiIkPg/Px7r/nd3d3Y7fbqauro6enh56eHjIzM6mpqaGlpYWzZ88Cg7mKPE9xJIKCgvzm8S9j4fcChIeHj7n9wbb8iooKHnzt7blz51i5ciUvv/zykFrEw/oBHvbd/oDfC2AwGMbc/mAiytn+SDy47WECTId3K/i9AILHw+8F6OvrG3P7g/fpnJwcGhoaeOedd4Z99sHaw8Pu8b29vb4FqWL8XoC2trYxtz+YiDt37iQyMnKYAMHBwaxdu3bMfR/1u/0BvxegpaWF/v7+UbebTKYh8/Orq6u5ffs2xcXFhISEEBISQmJiIhkZGcyePdv7ucDAQBITE0c9bn9//7QYLDItWgI//PBD+vr6+Oyzz1izZs2w7efPn+fUqVOPFMf69etZsWLFsPU//vgjmZmZzJw5k08++cTn44mWwEmkt7eXmpoakpOT2bFjB62trUO2L1++/JFeiRcfH8/y5cuHrOvs7OSNN95g9erV/P7779Pi/g/TJAe4e/cuR48epbCwkLt372I0Gnn//ffZtWuXtyVPkiQuXLhAZWXlqJ1BgYGBpKSkDOkM6u7u5ptvvuHTTz+ltbWVwMBAtm/fzvbt20Vn0GQw3u5gGCwPfPHFF95BoDNnzuS1117jrbfewmQyodPp6OjooK6ubsTu4MTERK8wDQ0N5OXlcfjwYbq7uwFYvHgxmZmZxMbGPnJsQgAfeRwBYPAcLl++TElJCRcvXvSuj4qKIjU1leTkZBYuXOjt/AkICODmzZvcvHmTpqYmfvjhByoqKrh+/bp3X7PZTHp6OitWrBj3I96EAD7yuALcT1NTE6WlpZw7d27IGEBfePLJJ1mxYgVbt26dkGcWCgF8ZCIFkJEkiRs3bnD58mWuXLlCR0cHnZ2duN1uBgYGMBqNGI1Gnn76aZ577jmWLl1KfHw8ev3ElZGFAD4yGQKoAbUKMC2qgYLxIwTQOEIAjSME0DhCAI0jBNA4QgCNIwTQOEIAjSME0DhCAI0jBNA4QgCNIwTQOEIAjeP308PHg8fjoaKighMnTgCD7/ddu3atqt/vN1lo74wZnPt/4MAB7/8HDhxAp9NN+2cCjoQmbwHyL/9h67SAJgUQ/B9NCrB582af1mkBTZYBUlNTAYYUAuV1WkO1o4JPnz49bUrlHo/H++RyNVxjGVWOCp4/fz4w9qNc/A15llFMTIzCkQxHNQLIvwx5Tn59fb2S4Uwo8rmYTCZAXbmAagSQs/5ly5YBg3V1NV2o8SJJElVVVQBYLBaAcc8vnAxUI4DMrl27CA0NpaamhpMnTyodzmNz4sQJampqMBqNZGRkKB3OMFQnQHR0NAcPHgTAbrfjcDj8MieQJAmHw0FeXh4ABw8eJCoqSuGohqO6WoCMzWajqKgIgKSkJFJSUkhISOCZZ55Rbe3A4/Fw/fp16uvrqaqqoqamBgCr1UphYaHC0Q3n/luRBEhqIz8/XzIajZIcn78tRqNRKigoUPoyjgogqTYHkHE6neTl5VFdXU1tbS3Nzc1KhzQmMTExmEwmLBYLGRkZqsz2ZVQ5PVwwdaiyIWg0/ElOf4rVbwRQU935YfhTrH4jgGByEAJoHCGAxhECaBwhgMYRAmgcIYDGEQJoHCGAxtHD4PtyYHq8BEngG3Ja6wHCwsI8MPiCZIE2kN+VIAvQB4z5gmXB9KKhoQG4J0BcXFwtQHl5uYIhCaaSsrIy4J4AMTExhwCKi4vp7OxUMCzBVOB2uykpKRm60mw23wIkm82m7DglwaRjtVolQDKbzbe81cC0tLSXDQYDhYWFmp0qrQUcDgdFRUUYDAbWrVu3ZchGq9X6PSBFRERILpdLaVEFE4zL5ZIiIiIkQLJarSXwQENQXFzctiVLlnS1trZiNptxOBxTZqZgcnE4HJjNZlpbW7FYLF1xcXGvjPjBvXv3Pm+xWDq5N7TZarVKbrdbaXkF48Ttdkuvvvqqd6i6xWLp3Lt37/Nyeo84eC03N1ff2NhYUlpauqWvr4/w8HC2bdvGxo0bWbhwIdHR0cyaNWsSPBU8Lr29vTidThoaGigrK6OkpIS2tjYMBgNbtmw5FhcX98q+ffsGfDpYVlZWilw7EIv/Lmaz+VZWVlbK8BSG/wEu8QBhWzbzrgAAAABJRU5ErkJggg==;fontFamily=Times New Roman;" parent="1" vertex="1">
          <mxGeometry x="915" y="287.5" width="25" height="25" as="geometry" />
        </mxCell>
        <mxCell id="s9ZdvNC-4ONlF8Tl6-EY-42" value="" style="shape=image;verticalLabelPosition=bottom;labelBackgroundColor=default;verticalAlign=top;aspect=fixed;imageAspect=0;image=data:image/png,iVBORw0KGgoAAAANSUhEUgAAAIAAAACACAYAAADDPmHLAAABgmlDQ1BzUkdCIElFQzYxOTY2LTIuMQAAKJF1kc8rRFEUxz8GkV+jWEgWL2E1Iz9qYmMx8quwGKMMNjNv3ptR82Ze740kW2WrKLHxa8FfwFZZK0WkZGFlTWyYnvNm1Ejm3M49n/u995zuPRc84ZRq2BU9YKSzVmgsqMxF5pWqZ2pppYF6vFHVNqdmRsOUtI87ytx443drlT73r9XGNVuFsmrhIdW0ssLjwpMrWdPlbeFmNRmNC58K+yy5oPCtq8cK/OJyosBfLlvh0DB4GoWVxC+O/WI1aRnC8nI6jNSy+nMf9yV1Wnp2RmK7eBs2IcYIojDBCMME6GVQ5gB++uiWFSXye/L502QkV5XZZBWLJRIkyeITdVmqaxJ10TUZKVbd/v/tq6339xWq1wWh8slx3jqhagtym47zeeg4uSMof4SLdDE/cwAD76JvFrWOffCuw9llUYvtwPkGtDyYUSual8rFPboOrydQH4Gma6hZKPTsZ5/jewivyVddwe4edMl57+I3OVRn0USE0RIAAAAJcEhZcwAACxMAAAsTAQCanBgAAA1eSURBVHic7Z19TBPnH8A/LcKwMkcnL4ISXBCWTGqZ1Wi2GBVQXDSan06WuHbGZNtPtmyTbCgkW4jZErOYzL0lxbgEEpiZ4LAaSIyAc8vcfBmOCP4xhClhtJOXggjEYcf9/sDrT+TFisBdueeTXAJ3vev37vn0uef1DgSaRvewD+Tm5upv3br1anNz838bGxtN7e3thvb29hl37tyZivgEj0hwcDBhYWGesLCwvri4uNqYmJhDn3/+eeG4DrZnz561ZrP5FiCJxX8Xs9l8KysrK2V4Co+SA+Tm5uobGxuPlZaW/qevr4/w8HDS09PZsGED8fHxREVFMWvWrJF2FShMb28vLpeLa9euUV5eTnFxMW1tbRgMBrZs2VIaFxe3bd++fQOjHiA7O9uyZMmSTu7ZY7PZJLfbLQn8E7fbLVmtVm9usGTJks69e/c+P2Li5+bm6uXEj4iIkBwOh9LxCyaI48ePSxERERIgWSyWztzcXP0wAaxW6/dy4rtcLqVjFkwwLpfLK4HVai0Zkvh79uxZazAYJED88qcxx48flwDJYDBI3oJhbm6uXi7t22w2pWMUTDJymeBemsPu3bttgBQeHi4KfBrA7XZL4eHhEiDpAZqbm/8LkJ6ejtFo9K2+IfBbjEYj27ZtA0AP0NjYaALYsGGDgmEJppKNGzcC9wRob283AMTHxysYkmAqWbhwIXCvJTA4OFi6c+cOPT09ooVPI/T19TFr1ixvU7AEIEmSgiEJphqdTsfw1iCBphACaBwhgMYRAmgcIYDGEQJoHCGAxvEbAfypjcKfYvUbAXS6hw5gVg3+FOsMpQN4GE6nk7y8PC5dukRdXR1//fWX0iGNyfz580lMTGTZsmXs2rWL6OhopUPyCQlQuJd6OPn5+VJoaKjiw6rHuxiNRik/P1/pyzgqgKTavgCbzUZRUREASUlJpKamkpCQwIIFC5gxQ50Zl8fj4caNG9TX11NZWUlNTQ0AVquVwsLxzc2YTHQ6nTo7gwoKCti5cydBQUFkZGSwadMmv7qvwuC1PHnyJHa7nf7+fgoKCtixY4fSYQ1BlQI4nU4WLVpEV1cX7733Hps3b1Y6pMfC4XDw5ZdfYjQauXr1KlFRUUqH5EWVvYF5eXl0dXWRlJTEpk2blA7nsdm8eTNJSUl0dnZit9uVDmcYqhFAzn0uXboEQGpqqt9l+yOh0+lISRkcfV1dXQ2oI6eVUY0AcmLX1dUBkJCQoGQ4E8qzzz4LQG1tLaCudgLVCCAj1/MXLFigbCATiHwuzc3NygYyAqoTQEatVb3xoOZzUa0AgqlBCKBxhAAaRwigcYQAGkcIoHGEABpHCKBxhAAaRwigcYQAGkfTAuTk5JCTk6N0GIqi3l6KKeDChQtKh6A40zoHyM7OJisra1wDMCRJIisri+zs7EmITD1MawGcTifV1dX89ttvj7zvpUuXqK6uxul0TkJk6mFaC7Bu3ToAysrKHnlfeZ+0tLQJjUltTGsBXnrpJfR6PefOnaOjo8Pn/To6Ovjll18ICAhg/fr1kxih8kyLQmBOTg49PT18/PHHhIaGetfPmTOHF154gZ9//pmjR48yd+5c/vjjD9rb23G73d7Pvf7664SGhhIWFsbixYtpampiYGCAlStXMmfOnCHf1dXVxUcffURISAj79++fsnOcLKaFAD09PVy9epXMzEwOHjzolaClpYWBgcF3Ixw7dmzU/f/880/v36dPn/b+rdPp+Pvvv5k7dy4wmPiZmZk0NTWxaNGiyTiVKUd1E0PkEbNnzpzxeZ/7EyY2Npa3336b8vJyfvrpJ+85BQUFsXXrVtasWUNsbCxRUVFERkbyzz//0N7eTltbG/X19Zw5c4aysjLu3r0LgF6v58UXXyQtLY3Dhw97v+N+0XwhOTkZUMc1llHlzKDxCACDErz77rtDZg8HBgZis9l48803Wbp0KQEBAXR0dFBbW4vT6fSW8KOjo4mOjsZkMjFnzhz+/fdfLl68iN1u57vvvvPKADBv3jy++uqrR0p8EAL4zHgEkCSJyspKvv76a27fvk1AQACZmZns3r2befPmeT9z/vx5qqqq8Hg8Ix5nxowZpKamsnz5cm8cLpcLu93O/v378Xg8BAUFYbPZSE9PJzAw0OcYhQA+Mh4B0tPTaW9vBwarfocOHRoyr0CSJI4cOcK1a9dG3D8mJobVq1cDcPbsWYKDg9m+ffuQCRwul4sPPviAI0eOADB79mwcDofPMapVgGlRDfR4PDz11FMUFBRw6tSpYZNKLly4MGriA6xatYrIyEgiIyNZtWoV165dG9ZMHBUVxbfffktVVRUmk4mQkJDJOJUpx+9rAXq9nuvXrzNz5kyeeOKJYds7OjqorKwcsq67u5uKigpu3LgBDD4mXy7py1RWVhIfHz+sGpicnMyVK1fo7+/n119/9dYy/BW/zwHmzZtHaGjoiIkPg/Px7r/nd3d3Y7fbqauro6enh56eHjIzM6mpqaGlpYWzZ88Cg7mKPE9xJIKCgvzm8S9j4fcChIeHj7n9wbb8iooKHnzt7blz51i5ciUvv/zykFrEw/oBHvbd/oDfC2AwGMbc/mAiytn+SDy47WECTId3K/i9AILHw+8F6OvrG3P7g/fpnJwcGhoaeOedd4Z99sHaw8Pu8b29vb4FqWL8XoC2trYxtz+YiDt37iQyMnKYAMHBwaxdu3bMfR/1u/0BvxegpaWF/v7+UbebTKYh8/Orq6u5ffs2xcXFhISEEBISQmJiIhkZGcyePdv7ucDAQBITE0c9bn9//7QYLDItWgI//PBD+vr6+Oyzz1izZs2w7efPn+fUqVOPFMf69etZsWLFsPU//vgjmZmZzJw5k08++cTn44mWwEmkt7eXmpoakpOT2bFjB62trUO2L1++/JFeiRcfH8/y5cuHrOvs7OSNN95g9erV/P7779Pi/g/TJAe4e/cuR48epbCwkLt372I0Gnn//ffZtWuXtyVPkiQuXLhAZWXlqJ1BgYGBpKSkDOkM6u7u5ptvvuHTTz+ltbWVwMBAtm/fzvbt20Vn0GQw3u5gGCwPfPHFF95BoDNnzuS1117jrbfewmQyodPp6OjooK6ubsTu4MTERK8wDQ0N5OXlcfjwYbq7uwFYvHgxmZmZxMbGPnJsQgAfeRwBYPAcLl++TElJCRcvXvSuj4qKIjU1leTkZBYuXOjt/AkICODmzZvcvHmTpqYmfvjhByoqKrh+/bp3X7PZTHp6OitWrBj3I96EAD7yuALcT1NTE6WlpZw7d27IGEBfePLJJ1mxYgVbt26dkGcWCgF8ZCIFkJEkiRs3bnD58mWuXLlCR0cHnZ2duN1uBgYGMBqNGI1Gnn76aZ577jmWLl1KfHw8ev3ElZGFAD4yGQKoAbUKMC2qgYLxIwTQOEIAjSME0DhCAI0jBNA4QgCNIwTQOEIAjSME0DhCAI0jBNA4QgCNIwTQOEIAjeP308PHg8fjoaKighMnTgCD7/ddu3atqt/vN1lo74wZnPt/4MAB7/8HDhxAp9NN+2cCjoQmbwHyL/9h67SAJgUQ/B9NCrB582af1mkBTZYBUlNTAYYUAuV1WkO1o4JPnz49bUrlHo/H++RyNVxjGVWOCp4/fz4w9qNc/A15llFMTIzCkQxHNQLIvwx5Tn59fb2S4Uwo8rmYTCZAXbmAagSQs/5ly5YBg3V1NV2o8SJJElVVVQBYLBaAcc8vnAxUI4DMrl27CA0NpaamhpMnTyodzmNz4sQJampqMBqNZGRkKB3OMFQnQHR0NAcPHgTAbrfjcDj8MieQJAmHw0FeXh4ABw8eJCoqSuGohqO6WoCMzWajqKgIgKSkJFJSUkhISOCZZ55Rbe3A4/Fw/fp16uvrqaqqoqamBgCr1UphYaHC0Q3n/luRBEhqIz8/XzIajZIcn78tRqNRKigoUPoyjgogqTYHkHE6neTl5VFdXU1tbS3Nzc1KhzQmMTExmEwmLBYLGRkZqsz2ZVQ5PVwwdaiyIWg0/ElOf4rVbwRQU935YfhTrH4jgGByEAJoHCGAxhECaBwhgMYRAmgcIYDGEQJoHCGAxtHD4PtyYHq8BEngG3Ja6wHCwsI8MPiCZIE2kN+VIAvQB4z5gmXB9KKhoQG4J0BcXFwtQHl5uYIhCaaSsrIy4J4AMTExhwCKi4vp7OxUMCzBVOB2uykpKRm60mw23wIkm82m7DglwaRjtVolQDKbzbe81cC0tLSXDQYDhYWFmp0qrQUcDgdFRUUYDAbWrVu3ZchGq9X6PSBFRERILpdLaVEFE4zL5ZIiIiIkQLJarSXwQENQXFzctiVLlnS1trZiNptxOBxTZqZgcnE4HJjNZlpbW7FYLF1xcXGvjPjBvXv3Pm+xWDq5N7TZarVKbrdbaXkF48Ttdkuvvvqqd6i6xWLp3Lt37/Nyeo84eC03N1ff2NhYUlpauqWvr4/w8HC2bdvGxo0bWbhwIdHR0cyaNWsSPBU8Lr29vTidThoaGigrK6OkpIS2tjYMBgNbtmw5FhcX98q+ffsGfDpYVlZWilw7EIv/Lmaz+VZWVlbK8BSG/wEu8QBhWzbzrgAAAABJRU5ErkJggg==;fontFamily=Times New Roman;" parent="1" vertex="1">
          <mxGeometry x="915" y="332.5" width="25" height="25" as="geometry" />
        </mxCell>
        <mxCell id="s9ZdvNC-4ONlF8Tl6-EY-43" value="" style="shape=image;verticalLabelPosition=bottom;labelBackgroundColor=default;verticalAlign=top;aspect=fixed;imageAspect=0;image=data:image/png,iVBORw0KGgoAAAANSUhEUgAAAIAAAACACAYAAADDPmHLAAABgmlDQ1BzUkdCIElFQzYxOTY2LTIuMQAAKJF1kc8rRFEUxz8GkV+jWEgWL2E1Iz9qYmMx8quwGKMMNjNv3ptR82Ze740kW2WrKLHxa8FfwFZZK0WkZGFlTWyYnvNm1Ejm3M49n/u995zuPRc84ZRq2BU9YKSzVmgsqMxF5pWqZ2pppYF6vFHVNqdmRsOUtI87ytx443drlT73r9XGNVuFsmrhIdW0ssLjwpMrWdPlbeFmNRmNC58K+yy5oPCtq8cK/OJyosBfLlvh0DB4GoWVxC+O/WI1aRnC8nI6jNSy+nMf9yV1Wnp2RmK7eBs2IcYIojDBCMME6GVQ5gB++uiWFSXye/L502QkV5XZZBWLJRIkyeITdVmqaxJ10TUZKVbd/v/tq6339xWq1wWh8slx3jqhagtym47zeeg4uSMof4SLdDE/cwAD76JvFrWOffCuw9llUYvtwPkGtDyYUSual8rFPboOrydQH4Gma6hZKPTsZ5/jewivyVddwe4edMl57+I3OVRn0USE0RIAAAAJcEhZcwAACxMAAAsTAQCanBgAAAv4SURBVHic7Z1/TBPnH8dfdExr2RydbROZOKTKsgkp0pnF/SkoGAhMIvqHbRaXLYIuY2YB3M/GLBuZuoFmG+wviGCyyIbFaIwOjW7J/jEm/HCLARqZGLoIlLIMRkbxvn9guy9SQIVyd9zzSu6Pe3p3ed897z6/7vM8F8UMuFwu3dDQ0O6enp69Ho8npb+/39Df3x89Ojo602kCmdDr9ZhMpoDJZBqxWq3t8fHx31VWVtY91sVKS0u32Gy2IUASm3o3m802VFJSkj41hyeIejDB5XLpPB7PD42NjdtHRkYwm83s3LmT7Oxs1q1bx8qVK4mJiZnuegIZGR4exuv10tnZyblz5zh16hR9fX0YDAby8/MbrVZrwaFDh+5Ne4GDBw/a09LSBrnvHqfTKfl8PkmgTnw+n+RwOEKlQVpa2mBZWdmGsJnvcrl0wcy3WCyS2+2WW79gnjh9+rRksVgkQLLb7YMul0s3xQAOh+PHYOZ7vV65NQvmGa/XGzKBw+FomJT5paWlWwwGgwSIf/4i5vTp0xIgGQwGKdQwdLlcumBr3+l0yq1REGGCbYL7eQ7vvvuuE5DMZrNo8GkAn88nmc1mCZAOHDjg0PX09OwF2LlzJ0aj8WF7HAKVYjQaKSgoAOD27dt7dR6PJwUgOztbVmGChSMnJwcAj8eTouvv7zcArFu3TlZRgoVj7dq1AAwMDMRE6fV6aXR0lL///luM8GmEkZERYmJiWLp0KVFMjBIhSZLMsgQLSVTUxFuAqSNCAk0hDKBxhAE0jjCAxhEG0DjCABpHGEDjCANoHNUYQE0DVWrSqhoDBEeu1ICatEbLLWA2ent7qa6u5tq1a9y4cYM7d+7ILWlGVq1aRXJyMhs3bqSwsJC4uDi5Jc2KBMgcphCempoaKTY2VvbY+sfdjEajVFNTI/djDEtQo2JfBjmdTurr6wFITU0lIyODpKQkEhISiI5WZsEVCATo7u6mo6OD5uZmWlpaAHA4HNTVPd4EnUgRrKYUaYDa2lr27NnDkiVLKCoqIjc3V1X1Kkw8zzNnzlBVVcW///5LbW0tr7/+utyyQijWAL29vaxfvx6/309xcTF5eXlyS5oTbreb48ePYzQa+e2331i5cqXckgAFvw6urq7G7/eTmppKbm6u3HLmTF5eHqmpqQwODlJVVSW3nCkoxgDBEujatWsAZGRkqK7YD0dUVBTp6RMh+NevXweUU9qCggwQzOwbN24AkJSUJKeceeWFF14AoL29HVDWOIFiDBAk2M9PSEiQV8g8EryXnp4eeYWEQXEGCKLUrt7joOR7UawBBAuDcq0pMwMDAwQCgVmPi4mJ4amnnloARZFBGCAMn332GZcuXXro4x0OB2+88UYEFUUOUQU8QCAQwOPxPNI59fX1/PPPPxFSFFlECfAA0dHRHD16lM7OTsbGxsIe4/f7+eqrr0L7a9asQa/XL5TEeUUYIAzPPvssr7zyStjfxsbG+OKLLyalFRYWKqpv/yiIKuARkCSJEydOcPny5VDa3r172bhxo4yq5oYwwCNw8eJFTp48GdrPyclhx44dMiqaO8IAD0lbW9ukot9ut1NUVMQTTzwho6q5IwzwENy5c4dPP/00tB8fH09ZWRnLli2TUdX8IAwwC3/99Reff/45AwMDABgMBj7++GNMJpPMyuYHYYAZGBsbo7Kykps3b4bSPvzww9AKG4sBYYBpCLb4r1y5Ekp7++232bRpk3yiIoAwwDRcuHBhUos/Pz+f1157TUZFkUEYIAytra0cPnw4tL9p0ybeeustdLrF97gW3x3NkQdb/ImJibz33nssXbpURlWRQwwFP8CxY8fw+Xyh/YSEBC5cuDDjOcuWLWPDhg08//zzkZY37wgDPMC9e5O/p3D58uVJQ7/TkZyczPHjxyMlK2KIKuAB3nzzTTIzM3nyyScf+pznnnuObdu2RVBV5FDcxJDgW7WH+depic2bNwPKe86iBNA4wgAaR1ONQJ/PN22UD0yM8z/99NMLqEh+NGOAxsZGvv7661mP++ijj0L1tRbQTBXwsAM5bW1tEVaiLDRTAmRnZ7N58+Ypsf737t2joqKCn3/+GYAXX3xRDnmyoRkDAGEDOM6dOxfK/FdffTU0k1craKYKCMfNmzf58ssvAbBYLLzzzjuKnscXCTRrgMHBwUkxfu+//z4Wi0VGRfKgSQOMj4/z7bff8scffwCwb98+bDabzKrkQZMGcLvdobl/6enpbN++XWZF8qE5A7S2tvLNN98AE6969+/fr/rQ7rmgKQP09fVNqvfLysqIjY2VUZH8aMYAY2NjHDt2jD///BOA0tLS0No9WkYzBvj+++/59ddfAcjNzSUzM1NmRcpAtZ3e8fFx+vv7w/6m0+kwmUyhd96///47NTU1od8TExO5evVq2HOXL19OSkrKIwWEqBnVGuDo0aMzxurl5eVRXFwMwPDw8KTfKisrZ7z24cOHefnll+cuUgWo1gBZWVlTll2VJImmpib8fj9erzeUbrPZKC4uprW1lfHx8RmvazabSUxMjIhmJaJaA9hstimDN1euXMHv9wOwa9euUPqSJUvIy8tT/brDkWDRNAI7OzspLy8HoKioiA0bNsisSB0sCgP4fD7Ky8sZGxsjKyuL/Px8uSWpBtUbINi/7+7u5qWXXmLfvn2aHtl7VFRvgJMnT/LLL78QGxvLwYMHVb1ooxyo2gBXr17lxIkTAHzwwQesWrVKZkXqQ7UG6OrqCo3r79+/XzP99vlGlQYYGhqivLyc0dFRtm3btijn7S8UqhwHaGtr49atWwCcP3+e8+fPTznGbDbzySefsH79+oWWpypUaQCbzYbT6aS7u3vaYwwGA88888zCiVIpqjTA8uXL2bNnj9wyFgWqbAMI5g9hAI0jDKBxhAE0jjCAxhEG0Diq7AbOlUAgwE8//URTUxMwET62ZcsWzc0LBI0aoLm5mSNHjoT2jxw5QlRUFFlZWTKqkgdNVgHBf/5saVpAkwYQ/IcmDRAuOFSrAaOabANkZGQATGoEBtO0hmJXCr148eKiaZUHAgG2bt0KKO85K64KCIZ1zfSqV20EYxfi4+NlVjIVxRgg+M9ITk4GoKOjQ04580rwXlJSUgDllAKgIAMEi6TgVzibm5sV9aAeF0mSQquR2O12AEV9ZlYxBghSWFhIbGwsLS0tnDlzRm45c6apqYmWlhaMRiNFRUVyy5mC4gwQFxdHRUUFAFVVVbjdblWWBJIk4Xa7qa6uBqCiomLKZFYloLheQBCn00l9fT0AqamppKenk5SUxJo1axTbOwgEAty6dYuOjg4uXbpES0sLAA6Hg7q6OpnVTeb/qyEJkJRITU2NZDQapaBGtW1Go1Gqra2V+zGGJahRsSVAkN7eXqqrq7l+/Trt7e309PTILWlG4uPjSUlJCX1cWonFPvxXAijeAILIoNiBoOlQk0HVpFU1BlBS33k21KRVNQYQRAZhAI0jDKBxhAE0jjCAxhEG0DjCABpHGEDj6PR6PTB1QWXB4iWY13q9Hp3JZAoAkxZXFixuent7ATCbzQGdyWQagYm1dgXaoKurC4AVK1YM66xWaztMfEFToA3Onj0LgNVqbdfFx8d/B3Dq1CkGBwdlFSaIPD6fj4aGBgBWr179HQA2m20IkJxOp7xhKoKI43A4JEC6n+cT3cDMzMwdBoOBuro6zc6S1QJut5v6+noMBgNbt26dvKa+w+H4EZAsFovk9XrlNqpgnvF6vZLFYpEAyeFwNATzPTQQZLVaC9LS0vx3797FZrPhdrsXzJmCyOJ2u7HZbNy9exe73e63Wq27wh5YVla2wW63D3I/YtThcEg+n09u8woeE5/PJ+3evTsUAWy32wfLysomfUtnSuySy+XSeTyehsbGxvyRkRHMZjMFBQXk5OSwdu1a4uLiiImJiYBPBXNleHiY3t5eurq6OHv2LA0NDfT19WEwGMjPz//BarXuOnTo0L2HulhJSUl6sHcgNvVuNpttqKSkJH1qDk8wa/TigQMHHLdv397r8XhSBgYGYvr6+qJHR0dnO00gA3q9HrPZHFixYsWw1WptX7169XcVFRX1M53zP5rNyhYJkW5wAAAAAElFTkSuQmCC;fontFamily=Times New Roman;" parent="1" vertex="1">
          <mxGeometry x="915" y="248.5" width="25" height="25" as="geometry" />
        </mxCell>
        <mxCell id="s9ZdvNC-4ONlF8Tl6-EY-44" value="" style="shape=image;verticalLabelPosition=bottom;labelBackgroundColor=default;verticalAlign=top;aspect=fixed;imageAspect=0;image=data:image/png,iVBORw0KGgoAAAANSUhEUgAAAIAAAACACAYAAADDPmHLAAABgmlDQ1BzUkdCIElFQzYxOTY2LTIuMQAAKJF1kc8rRFEUxz8GkV+jWEgWL2E1Iz9qYmMx8quwGKMMNjNv3ptR82Ze740kW2WrKLHxa8FfwFZZK0WkZGFlTWyYnvNm1Ejm3M49n/u995zuPRc84ZRq2BU9YKSzVmgsqMxF5pWqZ2pppYF6vFHVNqdmRsOUtI87ytx443drlT73r9XGNVuFsmrhIdW0ssLjwpMrWdPlbeFmNRmNC58K+yy5oPCtq8cK/OJyosBfLlvh0DB4GoWVxC+O/WI1aRnC8nI6jNSy+nMf9yV1Wnp2RmK7eBs2IcYIojDBCMME6GVQ5gB++uiWFSXye/L502QkV5XZZBWLJRIkyeITdVmqaxJ10TUZKVbd/v/tq6339xWq1wWh8slx3jqhagtym47zeeg4uSMof4SLdDE/cwAD76JvFrWOffCuw9llUYvtwPkGtDyYUSual8rFPboOrydQH4Gma6hZKPTsZ5/jewivyVddwe4edMl57+I3OVRn0USE0RIAAAAJcEhZcwAACxMAAAsTAQCanBgAABQhSURBVHic7Z19UFTX+cc/uyzDymoRZVFiBdPVYNIiEaxI3tEYiaQ00Z8m0UVrUqMksSJToVMnQYzp2EnHYG2MxuZNrLWxIiFKFSskNkVrJdRgE1HWKCSususCibyFl/v7g94broiw7LIvcD8zjMNzuMfnzvme555z7nPOVXETMjIy1HV1dQurqqqWmUymCKvV6m+1WjVNTU03u0zBTWi1WoKCglqDgoIaDAZD2dixY7dlZWVl96mytLS0mZGRkXWAoPx4709kZGTd6tWrZ3Rt4Q5U1xsyMjLUJpPprzk5OY81NDSg1+uZP38+CQkJTJgwgZCQEHQ6XXf1KbiR+vp6zGYz586d48CBA7z33ntYLBb8/f2ZM2dOjsFgmJeZmdnebQW/+tWvoqOiomr4n3qSkpIEm80mKHgnNptNMBqNUjSIioqqSU9Pn3zDxs/IyFCLjR8cHCzk5ua6238FJ7Fv3z4hODhYAITo6OiajIwMdRcBGI3GvWLjm81md/us4GTMZrMkAqPRuEfW+GlpaTP9/f0FQOn5A5h9+/YJgODv7y9IA8OMjAy1ONpPSkpyt48K/Yw4Jvhfm0NKSkoSIOj1emXANwiw2WyCXq8XAGHVqlVGdVVV1TKA+fPnExgY2NsZh4KXEhgYyLx58wCorKxcpjaZTBEACQkJbnVMwXU88sgjAJhMpgi11Wr1B5gwYYJbnVJwHePHjwfg6tWrOpVWqxWampq4du2assI3SGhoaECn0+Hn54eKjlUiBEFws1sKrkSl6ngL0HVFSGFQoQhgkKMIYJCjCGCQowhgkKNxtwMDlfb2dk6cOAHA1KlTUas9s68pAugHLl26xF133cXFixcBCAsLo7i4mFtuucXNnnVFWQfoByIiIjh9+rTM9qMf/YiysjI3edQVZR2gn9i9ezenT59Gq9WSkpJCSkoKWq2W06dPs3v3bne71wVFAE5m7dq1AMTGxhIQEEBAQACxsbEAZGZmutGzG6MIwIns3r2b8vJytFotMTExkj0mJgatVsuZM2c8LgooAnAinXu/n5+fZPfz8/PYKKAIwEl01/tFPDUKKAJwEt31fhFPjQKKAJxAT71fxBOjgCIAJ9BT7xfxxCigCMBBetv7RTwtCigCcJDe9n4RT4sCigAcwN7eL+JJUUARgAPY2/tFPCkKKALoI33t/SKeEgUUAfSR3vR+Hx8ffHx8bljmKVFAEUAf6E3vv++++0hOTmbFihVMnDjxhn/jCVFAEUAf6Kn3BwQEMHXqVLRaLRqNhoiIiBvW4wlRQBGAnfSm9xsMBtnvN9t06+4ooAjATvoy8h86dGi3Ze6OAooA7KC3I/9vv/1W9ntra+tN63VnFFAEYAe97f3XC6C5ufmm9bozCigC6CX2zPuvP0m1sbGxx/rdFQUUAfQSe579fRGAu6KAIoBeYO+q3/UN3tDQ0Kv/xx1RQBFAL7B35N9XAbgjCigC6IG+rPm3trbKRv69FQC4PgooAuiBvr7x6zwTsEcAro4CThHA5cuXSUhIYOTIkeh0OqKiovjHP/7hjKrdiiNv/Do3+jfffGPXta6MAg4LoKamhkmTJpGfn4/NZqOhoYHS0lKmT5/O3/72N2f46Db62vsBqqurgY49l2az2a5rXRkFHBbAypUrsVgsDB8+nKeeeornn3+e8PBwWltbefbZZ53ho1tw9H3/559/TnNzs/SvvbgqCji8Ozg8PJyzZ88yf/58br/9dqBj5eu3v/0tAFarlREjRjjHWztoaWkhKyuLyspKNm7ciK+vr13XT5w4kfLycuLi4rjvvvv65INGo+lxGfhmHD16lKKiIiZOnMjnn3/e53puhNN2B9tsNgBGjRol2fz8/Bg+fDiCIPDFF184+l/YTVlZGdOmTSMtLY033niDr7/+2q7rHe39Io40PrgmCgyoWUBbWxvr168nOjqaTz75hLCwMA4ePMjIkSPtqseRZ39nRo8ejVar7fP1rhgLDBgBNDQ0MGfOHF544QVaWlpITk6mrKyMuLg4u+pxRu9XqVQsWLAAo9HI8uXLmTRpUp/qgf6PAgNCANXV1cTFxZGXl0dgYCAFBQVs2bKFYcOGAR3jm/z8fCorK3usyxm932AwSMfBaDQafvzjH/epHuj/KOD1Ajh//jyxsbGcOHGCcePGUVxczMyZM6Xy5uZmFi9eTEJCQo+zEmc9+69duyb7vTcvg25Gf0YBrxaA1Wpl1qxZnD9/nujoaI4dOyZLwLRarcycOZPs7Gx0Oh2pqak3rc9Zz/7Lly9TWlrKt99+i9Vq5Z///Gef64L+jQJee0pYY2MjiYmJVFRUMHnyZIqKiqSQD1BeXk5CQgImk4kxY8awf/9+7rzzzm7rc1bvFzly5AhFRUW0t3f/mT57iImJ4dixY1IUeOKJJ5xSr1dGgPb2doxGI8eOHSM0NJT9+/fLGr+wsJBp06ZhMpmIiorixIkTssa/0fTspZdeAhzv/df76Sw6RwHRV2fglQLYtGkTOTk5BAQEkJ+fLzt/74MPPmDWrFnU1tby05/+lKNHj8rKf//73zN06FB27Ngh2b7++mvOnDkDdBzq6KmIvpWXl3cZZ/QVrxPA2bNn+fWvfw3Ajh07+OEPfyiVffnllyxevJjW1lZSUlLYu3ev7CMYGzZsYOXKlTQ3NzN8+HDJ3tzcLK2MiYc7eiKdfXN0YCniVWOAtrY2lixZQlNTE0lJSSQmJkpl7e3tLF68mJqaGuLj49m4caPUqIIgsHbtWtatW4dKpWLbtm2ya/V6PVOnTuXYsWNu363bG2JiYtDr9U6py6siwOuvv05xcTEhISFs2rRJVrZx40YKCwvR6/W8/fbbssZPT09n3bp1qNVqduzYwdKlS7vUXVBQQHx8vGws4WkMGzaM+Ph4Dh065LQ6vSYCNDY28vLLLwPwhz/8QbbbprS0VHosvPXWW4wePVoq27JlC6+88goajYZdu3ZJn0yD79K1/fz8GDp0qNe/vu4LXhMB3njjDS5fvkxUVBSPPfaYZG9oaGDBggW0tLTw3HPPSZ9Eg45nZnp6OgDZ2dmyxv/qq6+47bbbHFqlGwh4hQCampqk18svvviiFN6hI/SfOXOG22+/nVdeeUWyC4LA8uXLqa+vZ968ebJ5c2NjI48++iiVlZWEhYW57kY8EK8QwK5duzCbzURGRsoGb21tbWzfvh3omBoOGTJEKtu5cycHDx4kMDCQzZs3S3ZBEFi6dCknT55k3LhxvP322667EQ/EKwTw5z//GYAVK1bIev+RI0eorKzk1ltvZcaMGZLdYrGQkpICdESIzrkK27dv509/+hM6nY68vDyCgoJcdBeeiccL4MqVKxQWFuLr68ucOXNkZX/84x8BePrpp2Vf5Ni2bRs2m40ZM2awePFiyX7t2jVeeOEFoGNM0d2+/cGExwtg7969tLe3M2vWLNnI32KxkJubi1qt5mc/+5lkFwSBnTt3AvDLX/5SFjFeffVVqquriYmJ4cknn3TZPXgyHi+Affv2AfD444/L7NnZ2bS0tDB79mzGjBkj2UtKSigvLyc4OJgHH3xQslutVmmQuGHDBpkwBjP9LoDExESmTZtGcnIyR48eteva9vZ2/v3vfwPInvEAb775JgA///nPZfbs7GwAnnzySTSa75Y5du3axTfffMPMmTN54IEH7L2NAUu/C6C+vp5//etfbN26lQceeIDly5f3eqeMyWSirq6OkJAQQkJCJHtdXR2fffYZQ4YMYfbs2ZK9paVFGjAajUZZXXl5eQAsWrTI0VsaUPS7ANasWcO6deuk6du2bdu48847e5WpW1JSAsCUKVNkdvGlyLhx42Tp3iUlJVgsFiZMmEB0dLRkr6ur46OPPsLHx0cmGAUXCCAwMJB77rmHlJQUNm/eTEhICOfOneO5557r8dpPPvkEQNaYABcuXAA6BHAj+6RJk2TP+IMHD9La2so999zjlj0KnozDArBnQ8kdd9xBZmYmPj4+7Ny5UwrL3XH58mUAQkNDZfbuBCAmfV7/959++ikA999/f699HSy4VAAA48ePl6Zg4kCuO2pqaoCux6zZKwBxb973v/99u3wdDLhcAAB333038F3P7A57BVBVVQV0L4DOA0mFDtwigB/84AdoNBouXrxIbW1tt38nltkbAcaOHSuzX7p0CVAEcCM8fiFIoX9xWAB9WVE7f/48ra2thIWFyXLzrkcsEx8FImLPFyOBiBj6xUeBiJgUau8+/cGAWwQgbpToac+cGPp7KwAx9F+/BUwM/YoAuuJyAVRUVEirdU8//fRN/9ZeAYgRoDsBfPnll3b5OhhwOCfQHgF89tlnvPzyy7S1tWE0GmXJHTdCzO27vkHtFYAYaT766KNe+zpY6Pek0NraWj7++GNOnjzJBx98gCAITJgwgddee63Ha6OiooDvloRFuhOAaD916hSCIEjijI+PR6PR8PHHH3P16lW7zwsYyPT7LGD9+vW8+OKL0qrf8uXLOXXqFN/73vd6vFZcAj558qTMLubxXbhwgZaWFsk+ZcoU9Ho9FRUVMtEEBARw//3309bWNigzf29GvwtAp9MRGxtLcnIyH374Ia+//rosd+9mGAwGAgICMJvNsgFcQEAAd9xxB42NjeTn50t2jUYjrTKKSSEi4uOm85YwBRcIIC8vj+LiYrZs2WL3YUtqtVpK2z5y5IisTBxAimlhIklJSUBHHmHnTaALFixg2LBhHD58mA8//NDe2xiwePxCkLgH4C9/+YvMnpSUhK+vL/n5+Xz11VeSPTo6mvDwcKqrq/n73/8u2YOCgli9ejUA6enpfT4VbaDh8QKYO3cuarWaQ4cOyaaDer2eRx99lPb2dt555x3JrlKppGSQ3/3ud7KGXrVqFaNGjeLEiRPSVHSw4/ECGDVqFNOnT6elpYWcnBxZmZgO9uabb8r24i9btowRI0Zw5MgR3n33Xck+dOhQ1q1bB8AzzzxDWVmZC+7As/F4AQDSwG7z5s2yHv3ggw8SFhbGF198IRsj6PV6srKyAEhNTeXKlStS2dKlS1m4cCH19fUkJiZitVpddBeeiVcIYMGCBYSEhHDq1ClZEolarZaiwMqVK2W5hkajkfj4eGpqalixYoVkV6lUbN++nSlTpnDhwgWWLFniuhvxQLxCAFqtVtrkmZmZKYsCqamp0lGqaWlpkl2lUrF161Z0Oh179uyR7fsfMmQIubm5hIaGevSBEK7AKwQAHc/s0aNHU1paKu0VAPD392fXrl34+vry2muvsX//fqksLCxM2lSalJTEnj17pLIxY8Zw9uxZKe18sOI1AhgyZAhr1qwB4Pnnn5fNCCZPnsxvfvMbAJ566ikplxDg2WefJS0tjdbWVp544glp3wB0nAvgrAOhvBWvEQBAcnIyd999N2azmZUrV8rKUlNTmT59OhaLhSVLlkiPCZVKxYYNG8jIyJCOkRF3FCt4mQB8fHx466230Gq1ZGdndxkQ7tixg8DAQA4ePEhqaiptbW1AhwjWrl3Lhg0bEASBZ555pseM5MGCVwkA4LbbbpPC/aJFi/jvf/8rlY0ZM4Z3330XjUZDVlYWc+fOpb6+XipPT09n06ZN+Pn5UVdX53LfPRGvEwB0TPnmzp1LXV0dDz/8sJT0CfCTn/yEgoIChg8fzvvvv8+9994rWyr+xS9+wbVr16R3BoMdrxSAWq0mOzub2NhYqqqqSEhIkH2YKS4ujuPHj2MwGCgtLSUmJobS0lKpvPOm0cGOVwoAOmYFeXl5jB8/nv/85z/ExcXJRv/h4eEcP35cigD33nsvhYWFbvTYM/FaAUDHG75Dhw5hMBgoKSkhNjZWOvJVLD98+DCLFi2ivr6ejRs3utFbz8SrBQAdm0yKi4uZOnUqFy5c4K677uLw4cNSuZ+fH++88w4HDhxgy5YtbvTUM/F6AQAEBwdTVFREYmIiNTU1PPTQQyQnJ0vjApVKxezZs7tsGVMYIAKAjiXhnJwc1q9fj6+vL1u3biUiIoKioiJ3u+bR9JsA3JFx4+Pjw5o1aygpKSEqKoqLFy8SHx/P1atXXe6Lt+DwfGjEiBFYrVauXLkiHb7Q3NxMbW0tKpWKW2+91WEn7SUiIoLjx4+TlZVFVVVVrzKQBysOCyAmJoazZ89SUFCATqdDp9NRUFAAdLyNc9eJHL6+vlIOoEL3OPzp2JqaGsLDw7FYLDK7RqMhLy+Phx9+2GEnFZyP0z4dGxgYyKeffip9Pt7f35/JkydTWFioNL4X4HAEUPBOnBYBFLwbRQCDHLX4devO780VBjZiW2u1WtRBQUGtoJyeMZgQ8yf0en2rOigoqAHg3LlzbnVKwXVUVFQAMHLkyHq1wWAoAzhw4IBbnVJwHWLqvMFgKFOPHTt2G8B7773X5SwehYGHzWaT9keEhoZuAyAyMrIOEJKSkgSFgY3RaBQA4X9t3jENnDVr1v/5+/uTnZ3N+++/7x5pKvQ7ubm57Ny5E39/fx566CH5B5iMRuNeQAgODhbMZrO7hargZMxmsxAcHCwAgtFolPbISQtBBoNhXlRUVG11dTWRkZHk5ua6TJkK/Utubi6RkZFUV1cTHR1dazAYHr/hH6anp0+Ojo6uoeP9gGA0GgWbzeZu8Sr0EZvNJixcuFAQ2zM6OromPT19cuc273LKY0ZGhtpkMu3JycmZ09DQgF6vZ968eTzyyCOMHz+eW265BZ1O1w86VXCU+vp6Ll26REVFBfv372fPnj1YLBb8/f2ZM2fOXw0Gw+OZmZntPdcErF69eoY4O1B+vPcnMjKybvXq1fJPrnWix3NeV61aZaysrFxmMpkirl69qrNYLJqmpqaeLlNwA1qtFr1e3zpy5Mh6g8FQFhoauu3VV1/debNr/h8jmWeyxvnQ1wAAAABJRU5ErkJggg==;fontFamily=Times New Roman;" parent="1" vertex="1">
          <mxGeometry x="940" y="248.5" width="25" height="25" as="geometry" />
        </mxCell>
        <mxCell id="s9ZdvNC-4ONlF8Tl6-EY-45" value="" style="shape=image;verticalLabelPosition=bottom;labelBackgroundColor=default;verticalAlign=top;aspect=fixed;imageAspect=0;image=data:image/png,iVBORw0KGgoAAAANSUhEUgAAAIAAAACACAYAAADDPmHLAAABgmlDQ1BzUkdCIElFQzYxOTY2LTIuMQAAKJF1kc8rRFEUxz8GkV+jWEgWL2E1Iz9qYmMx8quwGKMMNjNv3ptR82Ze740kW2WrKLHxa8FfwFZZK0WkZGFlTWyYnvNm1Ejm3M49n/u995zuPRc84ZRq2BU9YKSzVmgsqMxF5pWqZ2pppYF6vFHVNqdmRsOUtI87ytx443drlT73r9XGNVuFsmrhIdW0ssLjwpMrWdPlbeFmNRmNC58K+yy5oPCtq8cK/OJyosBfLlvh0DB4GoWVxC+O/WI1aRnC8nI6jNSy+nMf9yV1Wnp2RmK7eBs2IcYIojDBCMME6GVQ5gB++uiWFSXye/L502QkV5XZZBWLJRIkyeITdVmqaxJ10TUZKVbd/v/tq6339xWq1wWh8slx3jqhagtym47zeeg4uSMof4SLdDE/cwAD76JvFrWOffCuw9llUYvtwPkGtDyYUSual8rFPboOrydQH4Gma6hZKPTsZ5/jewivyVddwe4edMl57+I3OVRn0USE0RIAAAAJcEhZcwAACxMAAAsTAQCanBgAABbySURBVHic7Z15WBRH+sc/AzOgg0dgOFTEI2jUXRFlIq5RIur+1CTexGMVZNeAMTHxeBJAjHGYNWrExPVKNLpmjbJ4oybeGw884skKy7ohKlnwAAUEIYIHQ/r3B9utA3LIMcNAf55n/qC6qrqa/nZ19VtvvaWgHHQ6nVVubu7EGzduvJ2cnOyRlZWlzsrKUj58+LC8YjJmolGjRjg6OhocHR0L3N3dE93c3L5atmzZpipVFhoa+n+enp65gCD/LPfn6emZGxISMrD0HS5GUTJBp9NZJScn74iJiRlVUFCAk5MTY8eO5Y033qBjx460bNkSOzu7suqTMSP5+fmkp6dz9epV9u3bx7Zt28jMzEStVjN69OgYd3f3MXq9/tcyK5g9e7bWy8srh/+pJyAgQMjOzhZkLJPs7GzB399f6g28vLxywsLCejzz5ut0Oivx5js7Owu7d+82d/tlaohdu3YJzs7OAiBotdocnU5nVUoA/v7+O8Wbn56ebu42y9Qw6enpkgj8/f23G9380NDQ/1Or1QIgP/n1mF27dgmAoFarBWlgqNPprMTRfkBAgLnbKFPLiGOC/91zmDlzZgAgODk5yQO+BkB2drbg5OQkAMKsWbP8rW7cuPE2wNixY7G3t6/sF4eMhWJvb8+YMWMAuH79+ttWycnJHgBvvPGGWRsmYzqGDh0KQHJysodVVlaWGqBjx45mbZSpOXLkCK1ateLIkSMWWb46dOjQAYC7d+/aWWVlZSkBWrZsafKGmJOTJ0+Snp7OyZMnLbJ8dXB1dQUgIyNDaSVO7Mjm3YaDWq0G4NGjR5S2CMk0KGQBNHDqjQCuXr1KcHAw3bp1Q6lUolAoSv2aNm1a5qDryJEjNG3a9JnlzF1eqVTi4eFBUFAQ165dq7H/GYA1EAEQERFRoxWbki+//JKRI0dy4cIFMjIyEAShzLxFRUUkJCRw/PhxUlNTAUhJSSE2NpaEhASKiorKPZc5yguCQEZGBpcuXWLt2rU4ODjQs2fPcs9TEXq9HgBltWqpA2zfvp1p06YB0K1bN3r27ImLiwsqleq56mnfvj3h4eFVbkdtljcYDNy+fZvz58+TmJjItGnTcHFxwc/Pr8rnE7FoAeTl5TFlyhQA+vfvz6uvvmrmFtUOSqWS1q1b07p1azQaDcePHyc4OJhBgwbRtGnTatVt0WOAgwcPcu/ePRwcHOjbt+9zlW3bti1Nmzalbdu2VTq3ucr7+Phgb29PTk4O+/fvr9K5n0ZBsbdIue/NusrMmTNZvnw53bt3Z8SIEeZujsnYs2cP8fHxzJgxg2XLllWpDoWi2BvQonuAe/fuAdC8eXMzt8S0iNcrXn91sGgByFQfWQANHFkADRxZAA0cWQANHFkADRxZAA0cWQANHIueC0hPTwcgNjaW2NhYM7fG9IjXXx3kHqCBY9E9QO/evTl8+DDh4eHMmTPH3M0xGQsXLmTRokX07t272nXJPUADRxZAA0cWQANHFkADRxZAJdixYwc+Pj74+PiwY8cOs+epSSz6K8AUpKWlERQUJHnrBgUF0adPH6OldKbMU9PIPUAFHDp0yMhVu6ioiEOHDpktT00jC6ACBg8ejLW1tfS3tbU1gwcPNluemkYWQAW0atWK9evX4+XlhZeXF+vXry/VJZsyT00jjwEqgZ+fX4WLMEyZ55VXXqFly5b4+PiUm68yyAKwQHx9fUlJScHGxqbadckCqENcuXKFmJgYTp06xe3bt8nMzCQ3N5fmzZvj5OREixYt6Nu3L6NHj6Zr1641ck5ZAGZGEASio6NZunQpV65ceWae7OxssrOz+emnn4iNjWXBggV06tSJsLAw/vjHP0qLPKpCvR4E1nUDzsmTJ3nllVeYOnUqV65cQa1W4+vrS3h4OKtXr2br1q0cOHCArVu3snr1asLDw/H19UWtVvPTTz8xefJkPD09OXr0aOX+Ic+gRpaGJSUlERwczL/+9S+geJXuunXr6Ny5c5XrrAwRERHo9fpnTgenpaXxm9/8Rvqutra25scffyxleDFVnpKsWLGCefPmUVRUhL29PYGBgbz22muVWtVcWFjIgQMH+Oabb8jJycHa2ppFixYREhJSYVmRGlsalpSUhFar5dSpU+Tl5ZGXl8epU6fQarUkJSVVt/oqU1cNOIIg8M477/DRRx9RVFSEn58fUVFRDB8+vNJL2lUqFcOHDycqKgo/Pz+KiooIDQ0lMDDwuR/kagsgODiYgoICXF1dmTp1KlOnTsXV1ZWCggJp6bY5qKsGnI8//pioqCiUSiVhYWFMmzaNxo0bP/8FAo0bN2batGmEhoaiVCrZuHEjoaGhz1VHtQUgdvvDhg3DxcUFFxcXhg0bBkBCQkJ1q68yddGAs3nzZpYvX45CoUCv19eYlW/IkCHo9XoUCgWfffYZGzdurHTZao8BxHeJTqczShdDkNTmsvPyxgB1jYyMDLp160Z+fj5Tpkxh/PjxAMTFxfHpp5/y1ltvMWTIkGqdY/Pmzaxbtw47OzuuXbtGixYtysxbL5aHWxJ6vZ78/Hy0Wi3jxo2T0ouKirh79y6fffYZ58+fr9Y5xo8fj1arJT8/n48++qhSZWQBmIDk5GSio6MBmDJlitF3u7e3NxMnTuTXX38lIiKCq1evVvk8CoVCGndt2rSpUnXJAjABmzZtwmAw0K9fv2fGZJ48eTIDBw7k4cOHhIeHc+fOnSqfq2PHjvTr14/CwkLWr19fYf56LYC64qVz8OBBAAYOfPbubQqFgtDQULp37052djazZ8/m/v37z30ekQEDBgBUKoaQRQvg7t27ZR4TvWvi4+OJj48nKCio1EqamspTHrdu3eLy5cvY2Njw8ssvl5lPpVKh1+tp27YtqampzJs3j8LCwkqf52lefvllVCoViYmJ3Lhxo9y8FiuAO3fuEBUVVebxuuKl8+9//xso7pobNWpUbt6mTZvy6aef4uDgQHx8PEuWLDH6ihIEgWvXrhEdHc2MGTMYOXIkly5dKlVP48aNeemll4Ann+llYZGTQQUFBQwbNqzcIEmiceZp82xZBpzq5imPW7duAeDk5FSp/C4uLixatIgZM2bw/fff4+joSKdOnTh37hwXLlww6vVUKlWZE0GOjo4AFfYAFimAkJAQLly4wAsvvFCmCETjzIoVKwCYPn16mQac6uYpj7S0NAA0Gk2ly3Ts2JGIiAjmzJnDli1bjI5pNBp69eqFt7c3Wq22zDD/ogBEAZaFxQng6NGjfPnllyiVSsaPH8+aNWvKNDaZ0kunpvH29ubDDz9k1apVdOjQQbrpL774YrWmf0tiUQK4f/8+b731FlBsU3dwcAAq7ubMSatWrYDyB6xlMWTIkCpbB7OysoAnu4OUhUUNAufOnUtKSgo9evQgPDxcGlWfOXMGg8Fg5tY9G/EGZGZmmvS8ogDc3NzKzWcxArh58yarV69GoVDw9ddfo1Kp6NGjB25ubvz8888sXbrU3E18JqLr1tWrVxG356ltHjx4IHkXdevWrdy8FiOAxYsX8/jxY9588026d+8OgK2tLYsXLwZg/vz5BAcHc/78eQoKCszZVCNcXV357W9/y+PHj7l48aJJznnx4kUKCwvx8PCosAewiDFAWloa69atA4rf/U8jWtmsra3ZsmVLqVGzubCzs2PLli34+voyZMgQLl++zJEjR547qnlVEF3EXn/99QrzWkQPsHLlSh49eoSfnx8eHh5Sek5ODtu2bQOKDTbiljFPO2eYC4VCQePGjWnSpAlTpkxBpVIRGxtbrcmeynD16lViY2NRqVTSgLk86rwABEFg8+bNQPE3+NNER0fz8OFDfv/73zNw4EDWrl1LQkIC8fHxKJXFnduJEycQBEH6ffjhhwC0bt2a9PR0o2M1+fvll18k2/9LL72Ev78/AGvXrq01HwlBEFi7di0AAQEBldoMtM4L4Ny5c6SmpuLq6mrUfQqCIL0WgoKCjMosWbIEg8HA1KlTjVbPpKSksGLFChQKBTt27CjXYaKmWbhwIXZ2dsTFxbF169ZaOceWLVuIi4vDzs6OBQsWVKpMnReA+M8aO3YsVlZPmvvPf/6ThIQEHBwcGDlypJSen59PTEwMAB988IFRXTqdjsePHzNhwgR69eplgtY/oUWLFnzxxRcArFu3jjNnztRo/WfOnOGvf/0rULyJVmXFXecFsGvXLgAjLxpAuthJkyZha2srpX/77bfcv3+f3/3ud9IeuVA8KbNp0yZUKhXz5883QctLExgYyAcffIAgCOh0OmkAW10OHjyITqeTXnGTJk2qdNlaF4BGo6Ffv37MmjXruZ1E79y5Q2pqKk2aNDHaJu3BgweSh03JgY44Qyi+c0XEd29wcDDt27evyqXUCEuWLCEwMBCDwUBkZCRffPEFDx48qFJdBQUFrFq1isjISAwGA4GBgURGRj5XHbUugOzsbE6cOMGyZcvw9vYmIiKiwr31ROLi4gDo0aOHUff/448/kpeXR+fOnY3WyGVkZHDo0CGUSiVjx46V0gVB4NtvvwV4rqejNlAoFGzYsIHIyEisra3ZuXMnEydOZM+ePZWe/y8sLGTPnj34+/sTExODUqkkMjKSDRs2PPc8Qa3bATZu3MiVK1c4ffo0x44dQ6/Xc/ToUY4dO1bh55oogJKOFCkpKUDpLe8PHz5MUVERr732mtH0a2JiIqmpqbi4uFR7w8WaIiQkBK1Wy8yZM0lMTGT58uWsXbsWb29vevfujZubGxqNhubNm5Obm8vdu3e5ceMGZ86c4fz581Kv4eHhwbJlyyQvoOel1gUg7nc3YMAABgwYQGRkJCdPnuSTTz4p5UpeEtHZQavVGqWLAmjXrp1R+n//+18APD09jdK/++47AIYOHWrUk5ibAQMGkJCQwIYNG1i8eLG0+LMycY87derE7NmzCQwMtJzFoX369JFWrixcuLDCMcHt27cBaNOmjVF6WQIQZwVL5he9Yvr161eldtcmCoWCP/3pTyQlJZGUlERERAS+vr506dIFjUaDUqlEo9HQpUsXfH19iYiIkPJWd2UwmMEU3KdPH/r378+xY8f45ptvyp3EycnJAcDe3t4ovSwBXL9+HSg9Ayb68LVu3bo6Ta91OnXqhE6nq7BnrEnM0h/26dMHKP6WL4+qCqBkDyB65Yhz8zJPMIsARIdF0WGyLER3r8oKQHwFlNUD1HbAJUuk7oyIZMyCWQQgOitUFOfmhRdeAJ68CkTEJ1/sCUTEJ7+ki5j45NfEDhv1DbMI4PTp0wB4eXmVm0/s+isrAPHdL44FRMR3vzgWkHmCyQUgGoRsbW0JDAwsN29VBVBWD3Dz5s2qNrveYlIBnD59WrJVh4eHlzLYlESc0Sr5RFf0CiiZX/SLa4gbS1VErQvg5s2bHD16lPnz5/Pxxx/zyy+/4OPjw9y5cyss26NHD+CJSVikLAGIkzwlDUxixJK9e/fy66+/VuUy6i21bgh6evLF1taW8PBw5s6dWym3LdEEXNKZUhRASfeqQYMGYW1tzT/+8Q8yMzOl+QAPDw9p0eWFCxdM7gtQlzHpdPC5c+fQ6XSV9tkTBXDp0iWjJ7dLly40a9aMpKQkI1uCs7MzgwcPxmAwSL6CUGxuHT58OMBzxc9pCNS6ALKysjh+/DhLly6t8J1fEhcXF9q2bcv9+/e5cOGClN64cWMmTJgAUCoIgugHUHLlsBiZY926dfz8889VuZR6SZ03BI0aNQqglB+d6Ae4ceNGHj16JKWPGDGCJk2acPbsWa5duyald+3alYCAAAoLC5k3b54JWm4Z1HkBiK5g27ZtM3oNeHl5SRE1du/eLaWr1WpGjx4NwOeff25Ul16vx8bGhujoaM6dO2eC1td96rwAevXqRdu2bbl16xanTp2S0hUKhdQLiP6BIiEhISiVStasWcPJkyel9Hbt2jF9+nQEQcDPz0+abm7I1HkBKBQK/vCHPwBIa/RFJkyYQKNGjfj+++9JTk6W0rt27SrFDQwKCjJak7dgwQL69u3LrVu3GDVqlNHroyFS5wUA8P7772Nra8vOnTtJTEyU0u3t7SXfv3fffdfoFTFnzhy6dOnClStX+POf/yyl29jYsHPnTtzc3Dh79iyzZ8823YXUQSxCAK1atSI4OBiglEv3okWL0Gg0HD582KiHsLW1Zf369SgUCiIjI4388J2dndmzZw/NmzcnNTXVNBdRR7EIAQCEhYVhY2PDjh07iI+Pl9LFEC5inqeDIvXu3ZsZM2ZQVFTEkCFDpEkoKLYy3rp1yySbM9ZlLEYArVu35p133kEQBCZPnmzkQj1ixAjefvttadXP0372kZGRjB07lry8PAYPHsyxY8ekY3Z2dnXKSdQcWNTVf/LJJ7Rr145Lly6xaNEio2Off/45nTp14vLly4SFhUnpKpWKv//970yaNIn8/Hxef/31GluRUx+wKAE0adKEr7/+GigeCzz9KrCzsyM6OhqVSsXKlStZuXKldEypVPK3v/2NKVOm8PDhQ4YPH27WUPZ1CYsSAED//v159913MRgMjBo1yiiurpeXl+RlPH36dN5//30pdpCVlRVr1qxh1qxZKJVKcnNzzdL+uobFCQCK19d5e3uTkpLC0KFDyc/Pl4699957REVFYWNjw6pVqxg+fDh5eXlAsU1h6dKl5OXl8eqrr5qr+XUKixSAWq3mu+++o3379ly8eJFx48YZRQmbOHEiR44cwdHRkQMHDtC3b18jJxExeISMhQoAir/lDxw4gIODA/v27WPEiBFGEbb79u3L2bNn6dy5M4mJiXh7e/Of//zHjC2um1isAKB4Jc3+/fvRaDTs378fX19fI/u+u7s7P/zwAwMHDuTOnTtSRBGZJ1i0AKB4suiHH37gxRdfJC4ujt69ext9Hdjb23PgwAF27twpTwM/A4sXABSvNDpz5gw9e/YkJSWFnj17otfrJWORSqVi9OjRpVYYydQTAUDxmOD48eO89957GAwGIiIi8Pb2Npo8kilNrQigNreKKw+1Ws3KlSs5evQo7dq1Iz4+nkGDBpmtPZZAtb+HmjVrRl5eHnfu3MHFxQVAMs40a9asutVXif79+5OYmMjChQuxtbWt0fDq9Y1qbxzp4+PDqVOncHV1ZejQoUBxRI60tDR8fHw4ceJEjTVWpuYQH4pqC0DcPLpkgGa1Wk1cXFyt7yAuUzVqbOfQzp07ExcXh4+PD82aNaNZs2b4+PjIN99CqHYPIGOZyHsHywCyABo8VuJmhk9PqcrUb8R73ahRI6wcHR0NIIdPaUiIkVKcnJwMVo6OjgVQeqm1TP1FXDOp0Wjyrdzd3RMB9u3bZ9ZGyZiOvXv3AuDu7p5o5ebm9hUUL74sGYtHpv6RnZ3N9u3bAWjTps1XAHh6euYCQkBAgCBTv/H39xcA4X/3vPgzcPDgwW+q1Wo2bdrEnj17zCNNmVpn9+7dREVFoVarGTRo0Gijg/7+/jsBwdnZWUhPTze3UGVqmPT0dMHZ2VkABH9//+3ifZcMQe7u7mO8vLzuZWRk4OnpaRR0Qcay2b17N56enmRkZKDVau+5u7uPe2bGsLCwHlqtNofi+QHB399fyM7ONrd4ZapIdna2MHHiREG8n1qtNicsLKzH0/e8lKeETqezSk5O3h4TEzO6oKAAJycnxowZw9ChQ+nQoQOtWrXCzs6uFnQqU13y8/NJS0vj2rVr7N27l+3bt5OZmSmGzdnh7u4+Tq/XVy5QYkhIyEDx60D+We7P09MzNyQkZGDpO1xMhb5Ss2bN8r9+/frbycnJHnfv3rXLzMxUmmobdJnno1GjRjg5ORk0Gk2+u7t7Yps2bb76y1/+ElVemf8HIJeSVhTkZUsAAAAASUVORK5CYII=;fontFamily=Times New Roman;" parent="1" vertex="1">
          <mxGeometry x="940" y="332.5" width="25" height="25" as="geometry" />
        </mxCell>
        <mxCell id="s9ZdvNC-4ONlF8Tl6-EY-46" value="&lt;font style=&quot;font-size: 12px;&quot;&gt;Room&lt;/font&gt;" style="text;html=1;strokeColor=none;fillColor=none;align=center;verticalAlign=middle;whiteSpace=wrap;rounded=0;fontSize=9;fontFamily=Times New Roman;" parent="1" vertex="1">
          <mxGeometry x="690" y="240" width="60" height="30" as="geometry" />
        </mxCell>
        <mxCell id="s9ZdvNC-4ONlF8Tl6-EY-47" value="" style="fontColor=#0066CC;verticalAlign=top;verticalLabelPosition=bottom;labelPosition=center;align=center;html=1;outlineConnect=0;fillColor=#CCCCCC;strokeColor=#6881B3;gradientColor=none;gradientDirection=north;strokeWidth=2;shape=mxgraph.networks.laptop;fontSize=12;fontFamily=Times New Roman;" parent="1" vertex="1">
          <mxGeometry x="72" y="431.25" width="70" height="45" as="geometry" />
        </mxCell>
        <mxCell id="s9ZdvNC-4ONlF8Tl6-EY-48" value="" style="fontColor=#0066CC;verticalAlign=top;verticalLabelPosition=bottom;labelPosition=center;align=center;html=1;outlineConnect=0;fillColor=#CCCCCC;strokeColor=#6881B3;gradientColor=none;gradientDirection=north;strokeWidth=2;shape=mxgraph.networks.mobile;fontSize=12;fontFamily=Times New Roman;" parent="1" vertex="1">
          <mxGeometry x="157" y="425.25" width="30" height="57.5" as="geometry" />
        </mxCell>
        <mxCell id="s9ZdvNC-4ONlF8Tl6-EY-49" value="" style="endArrow=classic;startArrow=classic;html=1;rounded=0;fontSize=12;exitX=0.5;exitY=0;exitDx=0;exitDy=0;exitPerimeter=0;fontFamily=Times New Roman;" parent="1" source="s9ZdvNC-4ONlF8Tl6-EY-47" target="s9ZdvNC-4ONlF8Tl6-EY-13" edge="1">
          <mxGeometry width="50" height="50" relative="1" as="geometry">
            <mxPoint x="330" y="300" as="sourcePoint" />
            <mxPoint x="380" y="250" as="targetPoint" />
          </mxGeometry>
        </mxCell>
        <mxCell id="s9ZdvNC-4ONlF8Tl6-EY-50" value="" style="endArrow=classic;startArrow=classic;html=1;rounded=0;fontSize=12;exitX=0.5;exitY=0;exitDx=0;exitDy=0;exitPerimeter=0;fontFamily=Times New Roman;" parent="1" source="s9ZdvNC-4ONlF8Tl6-EY-48" target="s9ZdvNC-4ONlF8Tl6-EY-13" edge="1">
          <mxGeometry width="50" height="50" relative="1" as="geometry">
            <mxPoint x="330" y="300" as="sourcePoint" />
            <mxPoint x="380" y="250" as="targetPoint" />
          </mxGeometry>
        </mxCell>
        <mxCell id="s9ZdvNC-4ONlF8Tl6-EY-51" value="Private end devices" style="text;html=1;strokeColor=none;fillColor=none;align=center;verticalAlign=middle;whiteSpace=wrap;rounded=0;fontSize=12;fontFamily=Times New Roman;" parent="1" vertex="1">
          <mxGeometry x="200" y="438.75" width="70" height="30" as="geometry" />
        </mxCell>
      </root>
    </mxGraphModel>
  </diagram>
</mxfile>
